<svg width="47" height="64" viewBox="0 0 47 64" fill="none" xmlns="http://www.w3.org/2000/svg">
    <path d="M43.4866 41.5987C43.4866 42.7768 42.5314 43.732 41.3533 43.732C40.1752 43.732 39.22 42.7768 39.22 41.5987C39.22 40.4206 40.1752 39.4653 41.3533 39.4653C42.5314 39.4653 43.4866 40.4206 43.4866 41.5987Z" fill="#39A8DA"/>
    <path d="M46.1527 36.2667H44.5527V3.20003C44.5518 2.35147 44.2141 1.53811 43.6146 0.938093C43.0146 0.338566 42.2013 0.000950857 41.3527 0H6.1527C5.30413 0.000952319 4.49078 0.338566 3.89076 0.938093C3.29123 1.5381 2.95362 2.35146 2.95267 3.20003V36.2667H1.35267C1.0579 36.2667 0.819336 36.5053 0.819336 36.8V59.2C0.819336 59.3414 0.875525 59.4771 0.975519 59.5772C1.07551 59.6772 1.21124 59.7333 1.35267 59.7333H2.95267V61.3333C2.95267 61.4748 3.00886 61.6105 3.10885 61.7105C3.20884 61.8105 3.34457 61.8667 3.486 61.8667H4.01933V63.4667C4.01933 63.6081 4.07552 63.7438 4.17552 63.8438C4.27551 63.9438 4.41123 64 4.55267 64H42.9526C43.0941 64 43.2298 63.9438 43.3298 63.8438C43.4298 63.7438 43.486 63.6081 43.486 63.4667V61.8667H44.0193C44.1607 61.8667 44.2964 61.8105 44.3965 61.7105C44.4965 61.6105 44.5526 61.4748 44.5526 61.3333V59.7333H46.1526C46.2941 59.7333 46.4298 59.6771 46.5298 59.5772C46.6298 59.4772 46.686 59.3414 46.686 59.2V36.8C46.686 36.6586 46.6298 36.5229 46.5298 36.4229C46.4298 36.3229 46.2941 36.2667 46.1526 36.2667H46.1527ZM6.15335 3.20003H41.3533V19.2H6.15335V3.20003ZM6.15335 20.2667H41.3533V36.2667H40.2867V30.4C40.2867 30.2586 40.2305 30.1229 40.1305 30.0229C40.0305 29.9229 39.8948 29.8667 39.7533 29.8667H15.7527V28.8C15.7523 28.211 15.2751 27.7338 14.6861 27.7334H8.28607C7.69703 27.7338 7.21988 28.211 7.2194 28.8V36.2667H6.15274L6.15335 20.2667ZM23.7539 34.1334H37.6206C37.9154 34.1334 38.1539 34.3719 38.1539 34.6667C38.1539 34.9614 37.9154 35.2 37.6206 35.2H23.7539C23.4592 35.2 23.2206 34.9614 23.2206 34.6667C23.2206 34.3719 23.4592 34.1334 23.7539 34.1334ZM23.2206 32.5334C23.2206 32.2386 23.4592 32 23.7539 32H28.0206C28.3154 32 28.5539 32.2386 28.5539 32.5334C28.5539 32.8281 28.3154 33.0667 28.0206 33.0667H23.7539C23.4592 33.0667 23.2206 32.8281 23.2206 32.5334ZM20.0206 33.0667V36.2667H11.4873V33.0667H20.0206ZM42.4206 62.9333H5.08729V61.8667H42.4206V62.9333ZM45.6206 58.6667H1.88729V37.3334H45.6206V58.6667Z" fill="#39A8DA"/>
    <path d="M30.8427 4.42214C30.2613 5.00691 29.4698 5.335 28.6446 5.33262H18.8618C18.0366 5.33501 17.2451 5.00691 16.6637 4.42214C16.5642 4.31928 16.4275 4.26072 16.2847 4.25929C16.1418 4.25834 16.0042 4.31453 15.9028 4.41547C15.8018 4.5169 15.7456 4.65452 15.7466 4.79738C15.748 4.94024 15.8066 5.0769 15.9094 5.17643C16.6909 5.96214 17.7537 6.40218 18.8619 6.39925H28.6452H28.6447C29.7528 6.40211 30.8157 5.96212 31.5971 5.17643C31.7 5.0769 31.7586 4.94024 31.76 4.79738C31.7609 4.65452 31.7047 4.5169 31.6038 4.41547C31.5024 4.31452 31.3648 4.25833 31.2219 4.25929C31.079 4.26072 30.9424 4.31929 30.8428 4.42214H30.8427Z" fill="#39A8DA"/>
    <path d="M18.862 23.4666H28.6453H28.6448C29.7529 23.4695 30.8158 23.0295 31.5972 22.2438C31.7001 22.1443 31.7587 22.0076 31.7601 21.8648C31.761 21.7219 31.7049 21.5843 31.6039 21.4829C31.5025 21.3819 31.3649 21.3257 31.222 21.3267C31.0791 21.3281 30.9425 21.3867 30.843 21.4895C30.2615 22.0743 29.4701 22.4024 28.6449 22.4H18.862C18.0368 22.4024 17.2453 22.0743 16.664 21.4895C16.5644 21.3867 16.4278 21.3281 16.2849 21.3267C16.1421 21.3257 16.0044 21.3819 15.903 21.4829C15.8021 21.5843 15.7459 21.7219 15.7468 21.8648C15.7483 22.0076 15.8068 22.1443 15.9097 22.2438C16.6911 23.0295 17.754 23.4696 18.8621 23.4666H18.862Z" fill="#39A8DA"/>
    <path d="M18.2085 46.3996H29.2961C30.676 46.401 31.9652 45.711 32.7294 44.562C32.8089 44.4444 32.838 44.3001 32.8104 44.1605C32.7832 44.0215 32.7013 43.8991 32.5832 43.8201C32.4651 43.7415 32.3204 43.7129 32.1813 43.741C32.0423 43.7696 31.9199 43.852 31.8418 43.9705C31.2751 44.8224 30.3194 45.3339 29.296 45.3329H18.2084C17.1851 45.3339 16.2294 44.8225 15.6627 43.9705C15.4984 43.7272 15.1689 43.662 14.9246 43.8248C14.6803 43.9877 14.6136 44.3172 14.7751 44.562C15.5394 45.711 16.8284 46.401 18.2084 46.3996L18.2085 46.3996Z" fill="#39A8DA"/>
    <path d="M19.486 24.5322H28.0193C28.3141 24.5322 28.5526 24.827 28.5526 25.0656V28.2656C28.5526 28.5603 28.3141 28.7989 28.0193 28.7989H19.486C19.1912 28.7989 18.9526 28.5041 18.9526 28.2656V25.0656C18.9526 24.7708 19.1912 24.5322 19.486 24.5322Z" fill="#39A8DA"/>
    <path d="M18.4193 47.999H29.086C29.3807 47.999 29.6193 48.2938 29.6193 48.5324V52.799C29.6193 53.0938 29.3807 53.3324 29.086 53.3324H18.4193C18.1246 53.3324 17.886 53.0376 17.886 52.799V48.5324C17.886 48.2376 18.1246 47.999 18.4193 47.999Z" fill="#39A8DA"/>
    <path d="M19.486 7.46631H28.0193C28.3141 7.46631 28.5526 7.76107 28.5526 7.99964V11.1996C28.5526 11.4944 28.3141 11.733 28.0193 11.733H19.486C19.1912 11.733 18.9526 11.4382 18.9526 11.1996V7.99964C18.9526 7.70488 19.1912 7.46631 19.486 7.46631Z" fill="#39A8DA"/>
</svg>
