<svg width="70" height="49" viewBox="0 0 70 49" fill="none" xmlns="http://www.w3.org/2000/svg">
    <path d="M69.2089 43.7646H64.8691L65.0366 43.5971C65.2495 43.3856 65.2623 43.0445 65.0652 42.8177L60.3965 37.4326V37.4331C59.4731 36.3683 58.1335 35.7565 56.7241 35.757H55.862L55.1271 32.3252H66.921C67.8683 32.3242 68.6359 31.5566 68.6369 30.6093V10.0183C68.6359 9.07096 67.8683 8.30341 66.921 8.30237H31.4587C30.5114 8.30339 29.7439 9.07096 29.7428 10.0183V12.8781H25.167V11.6586C25.6578 11.5315 26.0924 11.2455 26.4029 10.8451C26.7134 10.4452 26.8819 9.95292 26.8829 9.44634V5.79997H27.3334C27.9457 5.80048 28.5233 5.51807 28.8987 5.03444C29.274 4.55082 29.4048 3.92063 29.2521 3.3282C29.0999 2.73528 28.6816 2.24605 28.1199 2.00344L27.9799 1.54892C27.8676 1.1848 27.6608 0.857444 27.3804 0.599044C27.3707 0.590362 27.3595 0.58066 27.3462 0.568913V0.569424C26.9381 0.203257 26.4091 0.000510514 25.8606 6.41529e-07H25.6063C24.7979 -0.000510015 24.019 0.303859 23.4256 0.852338L23.3541 0.918217C22.99 1.2568 22.511 1.44473 22.0141 1.44422H21.9712C21.2465 1.44065 20.5505 1.72561 20.0361 2.23681C19.5224 2.7475 19.2333 3.44205 19.2328 4.16675V7.44431C19.2328 7.86256 19.3636 8.27061 19.6072 8.61073C19.8508 8.95085 20.195 9.2062 20.5913 9.3405V12.8781H5.70953C4.34451 12.8776 3.03453 13.4199 2.0693 14.3851C1.10359 15.3508 0.561252 16.6602 0.561774 18.0259V37.1866C0.563307 39.8697 1.95752 42.3604 4.24384 43.7642H0.571972C0.255851 43.7642 0 44.0201 0 44.3362V47.768C0 47.9197 0.0602613 48.0652 0.167499 48.1725C0.274737 48.2798 0.420292 48.34 0.571972 48.34H69.2086C69.3603 48.34 69.5059 48.2797 69.6131 48.1725C69.7204 48.0653 69.7806 47.9197 69.7806 47.768V44.3362C69.7806 44.1845 69.7204 44.039 69.6131 43.9317C69.5059 43.8245 69.3603 43.7642 69.2086 43.7642L69.2089 43.7646ZM48.6179 16.3099C49.3763 16.3099 50.104 16.6112 50.6403 17.1474C51.1765 17.6836 51.4778 18.4114 51.4778 19.1698C51.4778 19.9282 51.1765 20.6558 50.6403 21.1921C50.104 21.7284 49.3763 22.0297 48.6179 22.0297C47.8595 22.0297 47.1318 21.7283 46.5955 21.1921C46.0592 20.6559 45.758 19.9282 45.758 19.1698C45.7585 18.4114 46.0603 17.6847 46.5966 17.1484C47.1328 16.6122 47.8595 16.3104 48.6179 16.3099L48.6179 16.3099ZM43.3257 24.5289C43.4345 24.3951 43.5979 24.3175 43.7705 24.3175H54.1191C54.3882 24.3175 54.6216 24.5059 54.6778 24.7694L55.9034 30.4891C55.9698 30.7976 55.7732 31.102 55.4642 31.1684C55.4249 31.1765 55.3845 31.1811 55.3442 31.1811C55.0746 31.1816 54.8417 30.9932 54.785 30.7292L53.6554 25.4614H44.4783L45.5564 30.4891C45.6156 30.795 45.4195 31.0918 45.1151 31.1571C44.8108 31.2225 44.51 31.0325 44.4385 30.7292L43.2118 25.0079H43.2113C43.1755 24.8393 43.2174 24.6632 43.3257 24.5288L43.3257 24.5289ZM39.4561 32.3251H45.9496L46.6844 35.7569H39.4561L39.4561 32.3251ZM29.7428 14.022V30.6098C29.7438 31.5572 30.5114 32.3247 31.4587 32.3258H33.7466L33.7379 39.6716L31.7973 37.4338H31.7978C30.8745 36.369 29.5349 35.7572 28.1254 35.7577H25.2114L24.3146 19.247L24.6021 18.3834L24.9111 18.5377C24.9908 18.5775 25.0781 18.5979 25.167 18.5979C25.2385 18.5984 25.3094 18.5846 25.3758 18.5581C25.5275 18.4994 25.6465 18.3783 25.7032 18.2261L27.2792 14.0222L29.7428 14.022ZM26.0576 14.022L24.8534 17.2307L23.6466 16.626L24.9479 14.022H26.0576ZM20.3767 7.44437C20.3772 7.04246 20.6576 6.69468 21.0503 6.60787C21.443 6.52156 21.8429 6.7192 22.0124 7.08383C22.0834 7.23958 22.2203 7.35449 22.3853 7.3984C22.5502 7.44232 22.7264 7.40964 22.8648 7.31005C23.4 6.92449 23.8228 6.40358 24.0889 5.79992H25.7389V9.44629C25.7379 10.0775 25.2262 10.5892 24.595 10.5902C24.4285 10.5902 24.2625 10.5759 24.0986 10.5473C23.949 10.5203 23.7948 10.5545 23.6701 10.6413C23.5455 10.7286 23.4608 10.8619 23.4342 11.0115C23.4082 11.1617 23.4424 11.3154 23.5302 11.44C23.6181 11.5641 23.7513 11.6484 23.9015 11.6739C23.9413 11.6811 23.9832 11.6841 24.023 11.6897V13.3158L22.8791 15.6037L21.7351 13.3158V8.8729C21.7356 8.56802 21.4961 8.31726 21.1918 8.30245C20.7352 8.27845 20.3772 7.90156 20.3767 7.44449L20.3767 7.44437ZM20.8098 14.022L22.111 16.626L20.9042 17.2307L19.7006 14.022H20.8098ZM1.70655 18.0258C1.70655 16.9641 2.12839 15.9458 2.87961 15.1946C3.63033 14.4438 4.64861 14.022 5.71032 14.022H18.4796L20.0556 18.226C20.1123 18.3782 20.2313 18.4992 20.383 18.5579C20.4494 18.5845 20.5204 18.5983 20.5919 18.5978C20.6807 18.5978 20.7681 18.5773 20.8477 18.5375L21.1567 18.3833L21.4442 19.2469L20.5474 35.7576H10.8582V20.315C10.8582 19.9989 10.6023 19.743 10.2862 19.743C9.97058 19.743 9.71422 19.9989 9.71422 20.315V30.0385H1.7066L1.70655 18.0258ZM27.931 43.7652C27.9739 43.7325 28.0168 43.7009 28.0597 43.6666L28.6317 43.2091C29.0494 42.8771 29.556 42.6764 30.0877 42.6315L31.2229 43.7652H27.931ZM35.1394 43.2775C34.9142 43.5037 34.6369 43.6712 34.3315 43.7652H33.162C32.8566 43.6712 32.5793 43.5037 32.3541 43.2775L30.7199 41.6443L30.7194 41.6448C30.6121 41.5376 30.4666 41.4773 30.3149 41.4773C29.4447 41.4789 28.6 41.7741 27.9183 42.3154L27.3463 42.773C26.5404 43.4139 25.5409 43.7637 24.5109 43.7652H8.28385C6.54035 43.7632 4.86836 43.0692 3.63552 41.8363C2.4022 40.603 1.70872 38.9315 1.70611 37.1875V31.1817H9.71372V36.3295C9.71372 36.4811 9.77398 36.6267 9.88122 36.7339C9.98846 36.8412 10.134 36.9014 10.2857 36.9014H28.126C29.2036 36.9014 30.2285 37.3687 30.9342 38.1828L35.2526 43.1645L35.1394 43.2775ZM59.0903 45.3612C59.1266 45.5302 59.0847 45.7069 58.976 45.8412C58.8667 45.9755 58.7027 46.0537 58.5301 46.0532H40.6101C40.2939 46.0532 40.0381 45.7973 40.0381 45.4812V44.3372C40.0381 44.1457 40.0519 43.9547 40.0794 43.7653H36.2702L36.4377 43.5978C36.6506 43.3863 36.6634 43.0452 36.4663 42.8185L34.8806 40.9897L34.8903 32.3258H38.3119V36.3296C38.3119 36.4813 38.3722 36.6268 38.4794 36.7341C38.5867 36.8414 38.7322 36.9016 38.8839 36.9016H46.9303L47.9098 41.4774H44.0419C43.3831 41.4784 42.7442 41.7062 42.2335 42.1229C41.7233 42.5396 41.372 43.1198 41.2392 43.7652L41.2377 43.7739C41.2004 43.9593 41.182 44.1482 41.182 44.3372V44.9091H57.8235L57.4287 43.0676H57.4292C57.8051 42.8194 58.2371 42.6692 58.686 42.6315L59.8213 43.7652H58.7488L59.0903 45.3612ZM63.7376 43.2775C63.5124 43.5037 63.2351 43.6712 62.9297 43.7652H61.7602C61.4549 43.6712 61.1776 43.5037 60.9523 43.2775L59.3181 41.6443L59.3176 41.6448C59.2104 41.5376 59.0648 41.4773 58.9131 41.4773C58.3095 41.4789 57.7151 41.6224 57.1773 41.8961L56.1075 36.9016H56.7239C57.8014 36.9016 58.8264 37.3689 59.5321 38.1829L63.8504 43.1646L63.7376 43.2775Z" fill="#FFBA1A"/>
</svg>
