<svg width="78" height="80" viewBox="0 0 78 80" fill="none" xmlns="http://www.w3.org/2000/svg">
    <path d="M74.9277 29.5537C73.3088 27.9748 71.1053 27.0894 68.809 27.0963H45.5144V24.4788C46.9781 24.3187 48.3295 23.6418 49.3112 22.5778C50.2935 21.5139 50.8372 20.1365 50.8391 18.7092V9.67681C50.8414 7.57083 49.8775 5.5731 48.2094 4.22452C46.5407 2.87543 44.3401 2.31615 42.2032 2.69691C41.4443 1.34263 40.1008 0.388165 38.5408 0.0944115C36.9802 -0.198797 35.3656 0.198675 34.139 1.1791C32.913 2.15952 32.2028 3.61983 32.2028 5.16071V13.5479C32.2028 17.5963 30.8478 21.5353 28.3424 24.7738C28.1908 24.9691 28.1671 25.2306 28.2794 25.4495C28.3923 25.6678 28.6229 25.8061 28.8749 25.8061H33.8666C35.6442 25.8072 37.3823 25.2957 38.8584 24.336V27.0964H8.27664C6.17173 27.0964 4.15718 27.9277 2.69823 29.3988C1.23869 30.87 0.461414 32.854 0.54463 34.8931L1.87283 67.504C2.00357 70.9371 3.8927 74.0807 6.9098 75.8836V79.3548C6.9098 79.5259 6.97993 79.6901 7.10472 79.8111C7.2295 79.9321 7.39888 80 7.57538 80H68.809C68.9855 80 69.1548 79.932 69.2796 79.8111C69.4044 79.6901 69.4745 79.5259 69.4745 79.3548V77.3888C69.6932 77.4078 69.9119 77.4176 70.1294 77.4176C71.6014 77.4176 73.0396 76.9884 74.2567 76.1854C75.4737 75.3825 76.4133 74.243 76.9529 72.9158C77.3071 72.0414 77.4616 71.3387 77.4533 70.6451L77.4616 35.4831C77.4687 33.2573 76.5559 31.122 74.9277 29.5533L74.9277 29.5537ZM71.0773 42.7082V42.7076C71.2384 42.6379 71.4214 42.6327 71.5866 42.6938C71.7512 42.7543 71.8849 42.8764 71.9569 43.0325L73.6344 46.6552C74.4135 48.3297 74.6411 50.1973 74.2851 52.002L74.2745 52.0545C73.9636 53.6449 73.2155 55.1235 72.109 56.3356C71.9931 56.4669 71.8273 56.5476 71.6496 56.5596C71.4713 56.5717 71.296 56.5141 71.1623 56.3995C71.0286 56.2849 70.9478 56.123 70.9389 55.9502C70.9294 55.7774 70.9918 55.6086 71.1124 55.4807C72.0603 54.4427 72.7014 53.1748 72.967 51.8125L72.9777 51.7595V51.7601C73.282 50.215 73.0871 48.6172 72.4197 47.184L70.7428 43.5613C70.6703 43.4052 70.6649 43.2272 70.7273 43.0671C70.7903 42.9075 70.9163 42.7779 71.0773 42.7076V42.7082ZM64.2984 33.2358C66.9192 35.0573 68.4737 37.9904 68.4762 41.1161C68.4791 43.1323 67.8266 45.0983 66.6125 46.736L58.1929 58.1474L45.0054 53.1254L45.3037 50.1398V50.1404C45.4089 49.0931 44.6696 48.1415 43.6016 47.9508C42.5337 47.7601 41.4932 48.3932 41.2061 49.4087L40.6261 51.4582L40.2422 51.3119H40.2416C40.1977 51.2814 40.1501 51.2566 40.0996 51.2376L39.0412 50.8332L50.3704 35.479L50.371 35.4784C51.9132 33.3937 54.2451 31.9864 56.8563 31.566C59.4675 31.1454 62.1441 31.7463 64.2984 33.2365L64.2984 33.2358ZM37.7649 50.3449L35.9964 49.6692L35.3141 36.4571V36.4565C36.9876 37.6944 38.9837 38.456 41.0786 38.6564C43.1735 38.8569 45.2848 38.4876 47.1752 37.5907L37.7649 50.3449ZM39.5228 28.3871C39.6993 28.3871 39.8687 28.3191 39.9935 28.1982C40.1183 28.0772 40.1884 27.913 40.1884 27.7419V18.7096C40.1884 18.5385 40.1183 18.3743 39.9935 18.2534C39.8687 18.1324 39.6993 18.0644 39.5228 18.0644C38.8424 18.0639 38.2095 17.728 37.8422 17.1727C37.4755 16.6168 37.4256 15.9187 37.7103 15.3196C37.9943 14.7206 38.5743 14.3035 39.2476 14.2119C39.9215 14.1209 40.5971 14.3686 41.0398 14.8692C41.2419 15.0967 41.5788 15.1589 41.8534 15.0195C41.9568 14.9671 42.0602 14.9129 42.1624 14.8559L42.1892 14.8421C44.4035 13.6151 46.1428 11.7193 47.1425 9.44451L49.5065 11.2775V18.7096C49.5053 20.1059 48.8379 21.4232 47.6993 22.2787C46.5606 23.1335 45.078 23.4308 43.6826 23.0834C43.3267 22.9941 42.9636 23.2021 42.8715 23.5471C42.78 23.8922 42.9939 24.2441 43.3499 24.3328C43.6232 24.4008 43.9013 24.4492 44.1818 24.478V27.7419C44.1818 27.913 44.252 28.0771 44.3768 28.1981C44.5015 28.3191 44.6709 28.3871 44.8474 28.3871H49.4732L49.1481 34.6728C47.2863 36.4337 44.7874 37.4194 42.1856 37.4194C39.5838 37.4194 37.0856 36.4338 35.2231 34.6728L34.8974 28.3871L39.5228 28.3871ZM15.7414 41.939C16.108 41.9229 16.4194 42.1954 16.4402 42.5502L17.1213 55.5243V55.5249C17.1308 55.6954 17.069 55.863 16.9507 55.9903C16.8324 56.1171 16.6666 56.1931 16.4907 56.2023H16.4563C16.1015 56.2017 15.8097 55.9322 15.7919 55.5894L15.1108 42.6153V42.6147C15.093 42.2599 15.3747 41.9569 15.7414 41.939H15.7414ZM46.8769 78.7099H37.494L37.4274 77.4195H46.9435L46.8769 78.7099ZM7.81978 74.9096C5.06176 73.3573 3.31816 70.5421 3.20117 67.4528L2.81609 57.992L15.855 56.8105L16.227 63.9039C16.2448 64.2473 16.5378 64.5174 16.8926 64.5169H47.5093C47.6859 64.5169 47.8552 64.4489 47.98 64.3279L51.5153 60.9011C51.8184 60.605 52.2956 60.5589 52.6527 60.7911C53.0105 61.0232 53.1477 61.4685 52.9808 61.8527L52.2195 63.6241V63.6235C52.1345 63.8228 52.1571 64.0498 52.2807 64.2295C52.4043 64.4086 52.6117 64.5164 52.834 64.5164H60.4881C61.0396 64.5164 61.4865 64.9495 61.4865 65.4841C61.4865 66.0187 61.0396 66.4519 60.4881 66.4519H54.1651C53.7973 66.4519 53.4995 66.7405 53.4995 67.097C53.4995 67.4536 53.7973 67.7422 54.1651 67.7422H61.8193C62.3707 67.7422 62.8176 68.1754 62.8176 68.71C62.8176 69.2445 62.3707 69.6777 61.8193 69.6777H52.834C52.4661 69.6777 52.1684 69.9663 52.1684 70.3229C52.1684 70.6794 52.4661 70.968 52.834 70.968H59.1569C59.7084 70.968 60.1553 71.4012 60.1553 71.9358C60.1553 72.4704 59.7084 72.9035 59.1569 72.9035H52.1682C51.8004 72.9035 51.5026 73.1921 51.5026 73.5487C51.5026 73.9053 51.8004 74.1939 52.1682 74.1939H57.8258C58.3772 74.1939 58.8241 74.6271 58.8241 75.1616C58.8241 75.6962 58.3772 76.1294 57.8258 76.1294H12.5129C10.9208 76.1322 9.35493 75.7388 7.96444 74.9877L7.81978 74.9096ZM76.1215 70.6515H76.1209C76.1078 71.2691 75.9693 71.8779 75.7126 72.443C75.1308 73.8756 73.9862 75.0254 72.5303 75.6412C71.0743 76.2564 69.4265 76.287 67.9473 75.7259L61.1328 73.1262C61.5547 72.4753 61.6022 71.6602 61.2582 70.9677H61.8192C62.565 70.9672 63.265 70.6204 63.7024 70.0351C64.1404 69.4499 64.2622 68.697 64.031 68.0098C63.8005 67.3226 63.2442 66.7846 62.5347 66.5617C62.9275 65.8618 62.9103 65.0138 62.4907 64.3295C62.0706 63.6445 61.3093 63.2252 60.488 63.2257H53.8322L54.2096 62.3479C54.4776 61.7269 54.4318 61.0207 54.0854 60.4366C53.7395 59.853 53.1328 59.4596 52.444 59.3714C51.7552 59.2833 51.0641 59.5114 50.5738 59.9878L47.2334 63.2257H35.1847L30.0097 61.2516C29.5438 61.0736 29.2865 60.5891 29.4071 60.1179C29.5283 59.6473 29.9907 59.3368 30.4881 59.3916L35.3932 61.2262V61.2268C35.5584 61.2919 35.7444 61.2901 35.9084 61.2216C36.0724 61.153 36.2014 61.0234 36.2656 60.8616C36.3297 60.6997 36.3244 60.52 36.2507 60.3621C36.1764 60.2043 36.0403 60.0822 35.8722 60.0228L31.3378 58.3264V58.327C31.2861 58.2843 31.2279 58.2503 31.1649 58.2256L29.9918 57.7774H29.9924C29.5211 57.5977 29.2638 57.1046 29.394 56.6305C29.5235 56.1564 29.9995 55.8517 30.5005 55.9226L36.054 58.0257V58.0252C36.3951 58.1502 36.776 57.9854 36.9085 57.6565C37.0416 57.3276 36.8764 56.956 36.5383 56.8235L30.8214 54.6587L30.6955 54.6103C30.1826 54.4145 29.9306 53.8523 30.1327 53.3551C30.3347 52.858 30.9147 52.6138 31.4276 52.8096L32.4474 53.199H32.4485L32.4682 53.2065L33.0993 53.4485C33.1141 53.4542 33.129 53.4559 33.1444 53.4611L38.3669 55.4202H38.3663C38.708 55.5441 39.0889 55.3782 39.2208 55.0487C39.3522 54.7192 39.1858 54.3482 38.847 54.2169L33.5242 52.2197L33.025 52.002C33.0155 51.998 33.006 51.9939 32.9959 51.9899C32.4908 51.7894 32.2453 51.2324 32.4456 50.7399C32.6459 50.2474 33.217 50.002 33.728 50.1897L39.461 52.381C39.5056 52.4115 39.5531 52.4363 39.6037 52.4558L40.8267 52.9213C41.0026 52.9881 41.1993 52.9795 41.368 52.8977C41.5368 52.8159 41.6616 52.6678 41.7121 52.4915L42.4882 49.7495C42.5922 49.3809 42.9708 49.1505 43.3589 49.2202C43.7469 49.2893 44.0155 49.6349 43.9775 50.0157L43.6322 53.4857C43.6037 53.7726 43.7749 54.0433 44.0512 54.1482L72.3282 64.9156V64.9162C72.4054 64.9456 72.488 64.9611 72.5712 64.9611C72.8915 64.9611 73.1667 64.7405 73.2261 64.4358C73.2855 64.1311 73.1132 63.8286 72.8149 63.7151L69.4733 62.4432V58.3356C70.1371 57.9968 70.7563 57.5804 71.3167 57.0965H76.1244L76.1215 70.6515Z" fill="#39A8DA"/>
    <path d="M46.3584 21.9341H46.7108C47.0787 21.9341 47.3764 21.6455 47.3764 21.2889C47.3764 20.9323 47.0787 20.6437 46.7108 20.6437H46.359C45.5276 20.642 44.7467 20.2607 44.2506 19.6143C44.0307 19.3315 43.6165 19.2733 43.3229 19.4842C43.0288 19.695 42.9658 20.0965 43.1809 20.3828C43.9285 21.3563 45.1063 21.9318 46.3585 21.9341L46.3584 21.9341Z" fill="#39A8DA"/>
    <path d="M45.5128 19.354H47.5095C47.686 19.354 47.8554 19.286 47.9802 19.165C48.105 19.0441 48.1751 18.8799 48.1751 18.7088V14.8378C48.1751 14.4812 47.8774 14.1926 47.5095 14.1926C47.1416 14.1926 46.8439 14.4812 46.8439 14.8378V18.0636H45.5128C45.1449 18.0636 44.8472 18.3522 44.8472 18.7088C44.8472 19.0654 45.1449 19.354 45.5128 19.354Z" fill="#39A8DA"/>
    <path d="M47.4997 49.9955C47.5366 49.9955 47.5728 49.9926 47.6091 49.9875L55.211 48.7616C56.4084 49.1119 57.6897 49.09 58.8741 48.6989C60.0584 48.3083 61.0871 47.5675 61.8157 46.5814L63.3632 44.4834C63.9842 43.6412 64.3622 42.6527 64.4572 41.6216C64.5523 40.5899 64.361 39.5525 63.9034 38.617C63.9028 38.6147 63.9016 38.6124 63.901 38.6101C63.6146 38.0237 63.2277 37.4885 62.7559 37.0282C62.8628 36.2615 62.6091 35.4885 62.0647 34.9228C61.5204 34.3566 60.7425 34.0576 59.9461 34.1077C59.1492 34.1573 58.4176 34.5513 57.9529 35.1803C57.916 35.2298 57.8845 35.2817 57.8524 35.3324C56.1516 35.5035 54.6096 36.3762 53.6195 37.7275L52.0702 39.8278C51.2703 40.9061 50.8793 42.2189 50.963 43.5449L46.9589 48.9747H46.9583C46.8133 49.1711 46.7943 49.4297 46.9084 49.6446C47.0219 49.8595 47.2507 49.9949 47.4997 49.9949L47.4997 49.9955ZM53.153 40.5795L54.7023 38.4793C55.3637 37.5766 56.3461 36.9429 57.4603 36.7015C57.4651 37.527 57.8775 38.3001 58.5698 38.7811L59.6526 39.5317C60.216 39.9246 60.8916 40.1354 61.5851 40.1354C62.0606 40.136 62.5306 40.0375 62.9633 39.8462C63.362 41.1751 63.1106 42.6072 62.281 43.7333L60.7335 45.8318C60.0186 46.8151 58.9288 47.4816 57.7046 47.6832C56.4809 47.8842 55.2252 47.6043 54.2155 46.905C53.2059 46.2051 52.5255 45.1441 52.3263 43.9562C52.1267 42.769 52.4244 41.5536 53.153 40.5795V40.5795Z" fill="#FFBA1A"/>
    <path d="M55.5975 40.3705C55.7722 40.317 55.9629 40.3463 56.1121 40.4494C56.2613 40.5531 56.351 40.7185 56.3552 40.8959C56.3635 41.2467 56.6594 41.5266 57.0208 41.5266H57.0362C57.2127 41.5226 57.3803 41.4512 57.5027 41.3273C57.6245 41.2035 57.6905 41.0381 57.6869 40.8671C57.6727 40.2835 57.3767 39.7403 56.8864 39.4005C56.3968 39.0612 55.7704 38.965 55.1964 39.1412C55.0264 39.1913 54.8844 39.3054 54.8018 39.4581C54.7192 39.6101 54.7025 39.7881 54.7566 39.9529C54.8101 40.1171 54.929 40.2536 55.087 40.3319C55.2451 40.4108 55.4293 40.4247 55.5981 40.3711L55.5975 40.3705Z" fill="#FFBA1A"/>
    <path d="M59.3873 42.9967C59.562 42.9432 59.7527 42.9726 59.9019 43.0757C60.0511 43.1794 60.1408 43.3447 60.145 43.5221C60.1533 43.8729 60.4492 44.1529 60.8106 44.1529H60.826C61.0025 44.1488 61.1701 44.0774 61.2925 43.9535C61.4143 43.8297 61.4803 43.6644 61.4767 43.4933C61.4625 42.9097 61.1665 42.366 60.6763 42.0267C60.1866 41.6874 59.5602 41.5912 58.9862 41.7675C58.6374 41.8758 58.4448 42.2375 58.5554 42.5762C58.6659 42.9144 59.0379 43.1027 59.3879 42.9973L59.3873 42.9967Z" fill="#FFBA1A"/>
    <path d="M57.635 42.7449L56.907 43.1176C56.5772 43.2869 56.3609 43.6095 56.3359 43.9701C56.311 44.3307 56.4803 44.6787 56.784 44.8889L57.326 45.2645C57.6249 45.4719 58.0403 45.4051 58.2542 45.1153C58.4682 44.825 58.3992 44.4223 58.0997 44.2149L57.8929 44.0715L58.2566 43.8855H58.2572C58.4147 43.8065 58.5335 43.6694 58.587 43.5053C58.6399 43.3411 58.6233 43.1625 58.5401 43.0104C58.4575 42.8584 58.3148 42.7443 58.1449 42.6942C57.9743 42.6447 57.7913 42.6625 57.635 42.7449H57.635Z" fill="#FFBA1A"/>
    <path d="M66.2181 17.7179C66.3429 17.8389 66.5123 17.9068 66.6888 17.9068C66.8653 17.9068 67.0346 17.8389 67.1595 17.7179L72.3676 12.6695C73.3166 11.7496 73.6875 10.4086 73.3398 9.15171C72.9928 7.89479 71.9795 6.91316 70.6828 6.5762C69.3867 6.23921 68.0027 6.59866 67.0537 7.5186L66.6894 7.87171L66.3251 7.5186H66.3245C65.3754 6.59866 63.992 6.23921 62.6954 6.5762C61.3987 6.91319 60.386 7.89476 60.0384 9.15171C59.6913 10.4086 60.0615 11.7496 61.0112 12.6695L66.2181 17.7179Z" fill="#FFBA1A"/>
    <path d="M55.2979 24.2728C55.4227 24.3938 55.592 24.4617 55.7685 24.4617C55.945 24.4617 56.1144 24.3938 56.2392 24.2728L58.2758 22.2987C58.9818 21.6149 59.0115 20.5146 58.3435 19.7957C57.675 19.0774 56.5429 18.9921 55.7685 19.6021C54.9936 18.9927 53.8628 19.0785 53.1948 19.7968C52.5268 20.5146 52.5559 21.6142 53.2613 22.2986L55.2979 24.2728Z" fill="#FFBA1A"/>
    <path d="M13.565 17.8747C13.6898 17.9957 13.8592 18.0636 14.0357 18.0636C14.2122 18.0636 14.3815 17.9957 14.5063 17.8747L17.6774 14.8009C18.3156 14.1759 18.5629 13.2692 18.3269 12.42C18.0904 11.5704 17.4058 10.9073 16.5299 10.6782C15.654 10.4495 14.7186 10.6891 14.0738 11.3078L14.0357 11.3446L13.9977 11.3078C13.3541 10.6833 12.4158 10.4397 11.5362 10.6684C10.6567 10.8965 9.96966 11.5624 9.7337 12.415C9.49836 13.2675 9.74974 14.1771 10.3933 14.801L13.565 17.8747Z" fill="#FFBA1A"/>
</svg>
