<svg width="60" height="59" viewBox="0 0 60 59" fill="none" xmlns="http://www.w3.org/2000/svg">
    <path d="M59.5037 0.164536H29.7395C29.4653 0.164536 29.2434 0.386435 29.2434 0.660605V13.6752C28.5591 13.2743 27.7805 13.0631 26.9876 13.0626H19.8181V11.8995C20.3979 11.6936 20.9002 11.3135 21.2554 10.8113C21.6106 10.309 21.8015 9.70927 21.8024 9.09401V5.8695H22.6953C23.2477 5.86862 23.777 5.64893 24.1676 5.25828C24.5582 4.86762 24.7779 4.33833 24.7788 3.78606C24.7792 3.46272 24.6889 3.1456 24.5188 2.87055C24.3487 2.59549 24.1047 2.37359 23.815 2.22965C23.6702 2.15612 23.5528 2.03786 23.4802 1.89214L23.2755 1.47934C23.0558 1.03509 22.7157 0.661274 22.2949 0.399951C21.8737 0.138627 21.3878 0 20.8922 0H20.8399C20.0024 0.00752959 19.1896 0.287459 18.5248 0.797248C18.2737 0.988589 17.9928 1.13785 17.6939 1.23884C17.3949 1.34026 17.0818 1.39165 16.766 1.39121C16.1281 1.39121 15.5164 1.645 15.0651 2.09634C14.6142 2.54723 14.3609 3.15934 14.3614 3.79715V7.84893C14.3622 8.28874 14.5084 8.7166 14.7777 9.06478C15.047 9.41291 15.4239 9.66227 15.8496 9.77345V13.0626H4.32601C2.91355 13.0621 1.58964 13.7518 0.780391 14.9096C-0.0292619 16.0673 -0.22193 17.5476 0.263504 18.8741L2.45596 24.8753V58.2055C2.45596 58.337 2.50823 58.4632 2.60123 58.5563C2.69424 58.6493 2.82048 58.7015 2.95203 58.7015H14.8577V51.7566C14.8577 51.4824 15.0796 51.2605 15.3538 51.2605C15.6279 51.2605 15.8498 51.4824 15.8498 51.7566V58.7015H26.7931C26.9246 58.7015 27.0508 58.6493 27.1439 58.5563C27.2369 58.4632 27.2891 58.337 27.2891 58.2055V38.8593H29.2437V58.2055C29.2437 58.337 29.296 58.4632 29.389 58.5563C29.482 58.6493 29.6082 58.7015 29.7398 58.7015H59.5039C59.6355 58.7015 59.7617 58.6493 59.8547 58.5563C59.9477 58.4632 60 58.337 60 58.2055V0.661422C60 0.52987 59.9477 0.403647 59.8547 0.310624C59.7617 0.217601 59.6355 0.165353 59.5039 0.165353L59.5037 0.164536ZM16.3462 14.0545C16.4778 14.0545 16.604 14.0022 16.697 13.9092C16.79 13.8162 16.8423 13.69 16.8423 13.5584V9.34176C16.8423 9.06847 16.6213 8.84657 16.3475 8.84569C15.9706 8.84436 15.6264 8.63044 15.4586 8.29293C15.2907 7.95498 15.3279 7.55148 15.5543 7.2503C15.781 6.94912 16.1584 6.80118 16.5296 6.86894C16.9003 6.93627 17.2015 7.20778 17.3073 7.56964C17.3512 7.71935 17.4624 7.83982 17.6085 7.89475C17.7542 7.94967 17.9172 7.93284 18.0492 7.84957C18.7898 7.38052 19.3611 6.68644 19.6787 5.86926H20.8108V9.09377C20.8104 9.69393 20.538 10.2622 20.0707 10.6387C19.603 11.0151 18.9904 11.16 18.4036 11.0329C18.136 10.9748 17.8716 11.1445 17.8136 11.4125C17.7551 11.68 17.9252 11.9444 18.1927 12.0024C18.4009 12.0476 18.6135 12.0702 18.8266 12.0702V13.5584C18.8266 13.6899 18.8788 13.8162 18.9718 13.9092C19.0648 14.0022 19.1911 14.0545 19.3226 14.0545H20.2652C20.1119 14.8074 19.6181 15.4465 18.9284 15.7854C18.2388 16.1243 17.4309 16.1243 16.7413 15.7854C16.0517 15.4466 15.5578 14.8075 15.4046 14.0545L16.3462 14.0545ZM1.19539 18.5328C0.822009 17.5106 0.971272 16.3701 1.5949 15.4781C2.21853 14.586 3.23856 14.0545 4.32731 14.0545H14.3984C14.5596 15.1649 15.2474 16.1291 16.2449 16.6433C17.2428 17.1571 18.4271 17.1571 19.425 16.6433C20.4225 16.1291 21.1103 15.1649 21.2716 14.0545H26.9888C27.8157 14.0549 28.6157 14.3499 29.2446 14.8867V26.6608L27.29 26.9802V18.5191C27.29 18.2449 27.0681 18.0231 26.794 18.0231C26.5202 18.0231 26.2979 18.2449 26.2979 18.5191V30.9214H14.3934L9.66694 19.0917C9.56507 18.8375 9.27629 18.7135 9.02205 18.8153C8.76737 18.9168 8.6438 19.2056 8.74523 19.4602L11.4068 26.1213L4.97601 28.8772L1.19539 18.5328ZM29.2451 27.6663V29.0185C29.1504 29.1372 29.0737 29.2692 29.0175 29.4101L28.4133 30.9208H27.2905V27.9851L29.2451 27.6663ZM26.2984 41.834H3.44976V27.5892L5.66263 33.6447C6.22424 35.1706 7.23984 36.4883 8.5726 37.4202C9.90535 38.3521 11.4914 38.854 13.1174 38.8575H26.2987L26.2984 41.834ZM13.1172 37.8655C11.6945 37.8624 10.3064 37.4234 9.14021 36.608C7.97402 35.7926 7.08552 34.6397 6.59387 33.3042L5.31645 29.8096L11.7747 27.0419L13.5963 31.6008C13.6716 31.7891 13.8545 31.9131 14.0579 31.9126H28.7494C28.9523 31.9126 29.1348 31.7891 29.2101 31.6008L29.9391 29.7778C30.045 29.5138 30.3342 29.3743 30.6066 29.4549C30.879 29.5359 31.0446 29.811 30.9893 30.09L30.7435 31.3192V31.3187C30.7142 31.4649 30.7519 31.6159 30.8458 31.7311C30.9401 31.8458 31.081 31.9127 31.2298 31.9127H33.5861C33.9285 31.9131 34.2057 32.1904 34.2062 32.5328V37.2454C34.2057 37.5877 33.9285 37.865 33.5861 37.8654L13.1172 37.8655ZM57.0252 55.724H32.2218V38.8576H33.5859C34.4758 38.8567 35.1973 38.1352 35.1982 37.2453V32.5327C35.1973 31.6429 34.4758 30.9214 33.5859 30.9205H32.2218V3.14061H57.0252V55.724Z" fill="#FFBA1A"/>
    <path d="M55.7164 39.0849C55.5264 39.0105 55.3098 39.0601 55.1712 39.2098C52.4499 42.1477 48.6266 43.818 44.6218 43.818C40.6169 43.818 36.7936 42.1478 34.0723 39.2098C33.9337 39.0601 33.7171 39.0105 33.5271 39.0849C33.3371 39.1594 33.2122 39.3427 33.2122 39.5469V53.243C33.2122 53.3745 33.2645 53.5007 33.3575 53.5938C33.4505 53.6868 33.5767 53.739 33.7083 53.739H55.5353C55.6669 53.739 55.7931 53.6868 55.8861 53.5938C55.9791 53.5007 56.0314 53.3745 56.0314 53.243V39.5469C56.0314 39.3427 55.9065 39.1593 55.7165 39.0849H55.7164ZM44.6217 50.7627C44.0955 50.7627 43.5906 50.5536 43.2186 50.1816C42.8465 49.8095 42.6374 49.3046 42.6374 48.7784C42.6374 48.2522 42.8465 47.7473 43.2186 47.3753C43.5906 47.0032 44.0955 46.7941 44.6217 46.7941C45.1479 46.7941 45.6528 47.0032 46.0249 47.3753C46.3969 47.7473 46.606 48.2522 46.606 48.7784C46.6056 49.3046 46.3961 49.8086 46.024 50.1807C45.652 50.5527 45.1479 50.7622 44.6217 50.7627L44.6217 50.7627Z" fill="#FFBA1A"/>
    <path d="M33.5266 19.7801C33.7166 19.8545 33.9332 19.8049 34.0718 19.6551C36.7931 16.7173 40.6164 15.047 44.6213 15.047C48.6261 15.047 52.4494 16.7172 55.1707 19.6551C55.3093 19.8049 55.5259 19.8545 55.7159 19.7801C55.9059 19.7056 56.0308 19.5223 56.0308 19.3181V5.62205C56.0308 5.49049 55.9786 5.36427 55.8856 5.27125C55.7926 5.17823 55.6663 5.12598 55.5348 5.12598H33.7077C33.4336 5.12598 33.2117 5.34788 33.2117 5.62205V19.3181C33.2117 19.5223 33.3366 19.7057 33.5266 19.7801H33.5266ZM44.6213 8.1023C45.1475 8.1023 45.6524 8.31137 46.0245 8.68341C46.3965 9.05546 46.6056 9.56039 46.6056 10.0866C46.6056 10.6128 46.3965 11.1177 46.0245 11.4897C45.6524 11.8618 45.1475 12.0709 44.6213 12.0709C44.0951 12.0709 43.5902 11.8618 43.2181 11.4897C42.8461 11.1177 42.637 10.6128 42.637 10.0866C42.6375 9.56039 42.847 9.05635 43.219 8.68432C43.5911 8.31228 44.0951 8.10277 44.6213 8.10232L44.6213 8.1023Z" fill="#FFBA1A"/>
    <path d="M37.1051 30.9206C37.4129 31.791 37.983 32.5448 38.7368 33.0781C39.4907 33.6109 40.3916 33.897 41.3146 33.897C42.212 33.8988 43.0925 33.6534 43.8596 33.1883C44.6271 32.7228 45.2516 32.0554 45.6649 31.259L46.6925 29.287C46.91 28.8671 47.344 28.6041 47.8166 28.6049H47.9291C48.3858 28.6049 48.7561 28.9752 48.7561 29.4319C48.7561 29.8885 48.3858 30.2584 47.9291 30.2584H47.2674C46.9937 30.2584 46.7713 30.4807 46.7713 30.7544V33.4009C46.7713 33.5324 46.8236 33.6587 46.9166 33.7517C47.0096 33.8447 47.1359 33.897 47.2674 33.897H47.9291C48.8522 33.897 49.7531 33.6108 50.5069 33.078C51.2607 32.5447 51.8308 31.7908 52.1386 30.9206H54.0472C54.1787 30.9206 54.3049 30.8683 54.398 30.7753C54.491 30.6823 54.5432 30.5561 54.5432 30.4245V28.4402C54.5432 28.3087 54.491 28.1825 54.398 28.0894C54.305 27.9964 54.1787 27.9442 54.0472 27.9442H52.1386C51.8308 27.0738 51.2608 26.32 50.5069 25.7867C49.753 25.2539 48.8521 24.9678 47.9291 24.9678H47.8166C46.9193 24.966 46.0387 25.2114 45.2717 25.6765C44.5045 26.142 43.88 26.8094 43.4668 27.6059L42.4387 29.5778C42.2213 29.9977 41.7876 30.2607 41.3146 30.2599C40.858 30.2599 40.4877 29.8896 40.4877 29.4329C40.4877 28.9763 40.858 28.6064 41.3146 28.6064C41.4462 28.6064 41.5724 28.5542 41.6654 28.4612C41.7584 28.3682 41.8107 28.2419 41.8107 28.1104V25.4639C41.8107 25.3324 41.7584 25.2061 41.6654 25.1131C41.5724 25.0201 41.4462 24.9678 41.3146 24.9678C40.3916 24.9678 39.4907 25.254 38.7369 25.7868C37.983 26.3201 37.413 27.074 37.1051 27.9442H35.1966C34.9224 27.9442 34.7005 28.1661 34.7005 28.4403V30.4246C34.7005 30.5561 34.7528 30.6823 34.8458 30.7754C34.9388 30.8684 35.065 30.9206 35.1966 30.9206H37.1051Z" fill="#FFBA1A"/>
</svg>
