<svg width="80" height="80" viewBox="0 0 80 80" fill="none" xmlns="http://www.w3.org/2000/svg">
    <path d="M43.3324 17.7049H45.3177C45.4932 17.7049 45.6615 17.6358 45.7856 17.5129C45.9097 17.3899 45.9794 17.2231 45.9794 17.0492V13.1147C45.9794 12.7523 45.6834 12.459 45.3177 12.459C44.9519 12.459 44.6559 12.7523 44.6559 13.1147V16.3934H43.3324C42.9667 16.3934 42.6707 16.6868 42.6707 17.0492C42.6707 17.4116 42.9667 17.7049 43.3324 17.7049Z" fill="#39A8DA"/>
    <path d="M44.3051 20.3279H44.6549C45.0206 20.3279 45.3166 20.0345 45.3166 19.6721C45.3166 19.3097 45.0206 19.0164 44.6549 19.0164H44.3051C43.4785 19.0146 42.702 18.627 42.2088 17.9701C41.9902 17.6826 41.5783 17.6235 41.2865 17.8378C40.994 18.0521 40.9313 18.4602 41.1452 18.7512C41.8885 19.7406 43.0596 20.3255 44.3052 20.3279L44.3051 20.3279Z" fill="#39A8DA"/>
    <path d="M79.6149 60.3509L71.6472 30.4715C71.2229 28.8802 70.2787 27.472 68.9623 26.4674C67.6465 25.4627 66.0317 24.9182 64.3703 24.9182H43.3317V22.9135C44.787 22.7507 46.1306 22.0628 47.1067 20.9813C48.0833 19.8999 48.6239 18.5 48.6258 17.0493V11.5926C49.4541 11.7191 50.3008 11.5627 51.0282 11.1494C51.755 10.7366 52.3186 10.0914 52.6276 9.31915L52.8279 8.80802C53.1458 8.00356 53.1641 7.11358 52.8793 6.29686C52.5939 5.4807 52.0243 4.79158 51.2728 4.35362V3.65573C51.2722 2.68616 50.8834 1.757 50.1915 1.07143C49.4996 0.385831 48.562 0.000584547 47.5835 0C45.9746 0 44.4018 0.471895 43.0635 1.35598L42.8649 1.48713C41.7447 2.22952 40.4271 2.62472 39.08 2.62297C37.7506 2.62238 36.4749 3.14581 35.5348 4.07731C34.5947 5.00881 34.0665 6.27281 34.0671 7.59029V14.4263C34.0683 15.1816 34.3318 15.9141 34.814 16.4989C35.2961 17.0844 35.9673 17.4872 36.7141 17.6395V24.9181H25.1334V21.7144C26.3293 21.1072 27.3326 20.1851 28.0327 19.0493C28.7335 17.9134 29.1039 16.6084 29.1039 15.277V13.2916L30.6283 13.5937C30.9143 13.6505 31.2038 13.5147 31.3415 13.26C31.4792 13.0053 31.4325 12.6915 31.2263 12.4872L29.979 11.2512L29.296 9.89759C28.984 9.27814 28.451 8.79628 27.7999 8.54688C27.1488 8.29687 26.4268 8.29687 25.7756 8.54688C25.1245 8.7963 24.5916 9.27814 24.2796 9.89759L23.983 10.486C23.7886 10.8718 23.554 11.236 23.2822 11.5721L18.9956 16.8819L11.5325 13.1839C11.3026 13.0698 11.0267 13.0979 10.8252 13.2565C10.6237 13.4146 10.5327 13.674 10.5924 13.9216L11.2843 16.8327L9.4586 18.54C9.28371 18.7034 9.21221 18.9487 9.27188 19.1794C9.33156 19.4106 9.51355 19.5909 9.74634 19.6512L17.1899 21.5693L16.7409 22.7133C16.6617 22.9153 16.6883 23.1425 16.8118 23.3211C16.9347 23.5002 17.1391 23.6068 17.3577 23.6068H18.6812C19.522 23.6068 20.3581 23.4844 21.1628 23.2438V24.9183H15.6703C14.0105 24.9195 12.3975 25.464 11.0823 26.4675C9.76707 27.471 8.82341 28.8773 8.39807 30.4676L0.376069 60.5538C-0.34182 63.2418 -0.0233454 66.0989 1.26943 68.5667C2.56163 71.0352 4.73537 72.9379 7.36652 73.9045C9.99766 74.8712 12.898 74.8325 15.5014 73.7956L18.1897 72.7254L18.1914 79.3443C18.1914 79.5182 18.2612 79.685 18.3852 79.808C18.5093 79.9309 18.6777 80 18.8532 80H61.1996C61.3751 80 61.5434 79.9309 61.6675 79.808C61.7916 79.685 61.8613 79.5182 61.8613 79.3443V73.4355L65.7414 74.4578C65.7479 74.4595 65.7544 74.4613 65.7609 74.4625C69.7221 75.3846 73.8805 74.1814 76.7183 71.2915C79.5556 68.4016 80.6542 64.2491 79.6149 60.3509ZM63.7811 58.6542L61.8597 58.2648L61.8585 51.6488L63.7811 58.6542ZM46.3092 26.2298L43.6917 32.4558L40.8757 30.5958L43.0784 26.2298H46.3092ZM35.3902 14.4264C35.3896 14.2654 35.4091 14.1044 35.4481 13.9481C35.6437 13.18 36.2841 12.6021 37.0741 12.4821C37.8641 12.362 38.6499 12.7221 39.0689 13.3972C39.2586 13.7016 39.6592 13.7994 39.97 13.6167C41.2409 12.8691 42.2453 11.7472 42.8433 10.4083L43.1629 9.6952L47.3018 11.1876V17.0494C47.3006 18.2666 46.812 19.4329 45.9434 20.2936C45.0749 21.1543 43.898 21.6385 42.6694 21.6397C42.2736 21.6397 41.88 21.5899 41.4966 21.4921C41.1462 21.4107 40.7947 21.6215 40.7048 21.9664C40.6144 22.3118 40.8195 22.6649 41.1657 22.7615C41.4428 22.8317 41.7241 22.8821 42.0083 22.9125V25.4196L40.023 29.3541L38.0377 25.4196V17.0495C38.0377 16.8756 37.968 16.7088 37.8439 16.5858C37.7199 16.4628 37.5515 16.3938 37.376 16.3938C36.2799 16.3932 35.3914 15.5125 35.3902 14.4264ZM36.9666 26.2298L39.1692 30.5958L36.3532 32.4558L33.7357 26.2298H36.9666ZM30.7579 43.2791H36.0519C37.298 43.2785 38.491 43.7773 39.3607 44.6614V41.9676H37.3754C36.1471 41.9664 34.9701 41.4822 34.1014 40.6215C33.2329 39.7609 32.7443 38.5947 32.7431 37.3773C32.7431 37.0149 33.0391 36.7216 33.4048 36.7216H36.0519C37.6785 36.7227 39.1858 37.5687 40.0224 38.9511C40.859 37.5687 42.3663 36.7228 43.9929 36.7216H46.64C46.8154 36.7216 46.9838 36.7906 47.1079 36.9136C47.232 37.0365 47.3017 37.2034 47.3017 37.3773C47.3005 38.5945 46.8119 39.7608 45.9433 40.6215C45.0748 41.4822 43.8979 41.9664 42.6693 41.9676H40.6841V44.6614C41.5538 43.7774 42.7468 43.2785 43.9929 43.2791H49.2869C49.4624 43.2791 49.6308 43.3482 49.7549 43.4711C49.879 43.5941 49.9487 43.7609 49.9487 43.9348C49.9475 45.1521 49.4588 46.3183 48.5903 47.1791C47.7217 48.0397 46.5448 48.5239 45.3163 48.5251H40.684V51.1481H39.3605V48.5251H34.7282C33.4998 48.5239 32.3229 48.0397 31.4542 47.1791C30.5856 46.3184 30.097 45.1522 30.0958 43.9348C30.0958 43.5724 30.3921 43.2791 30.7579 43.2791ZM18.6808 22.2954H18.3245L19.1877 20.0957C19.2545 19.9329 19.2521 19.7508 19.1824 19.5892C19.1121 19.4282 18.9798 19.3017 18.8143 19.2379C18.6495 19.1747 18.4657 19.1788 18.3038 19.2508C18.1419 19.3228 18.0167 19.4557 17.9546 19.6202L17.6734 20.3386L11.2359 18.68L12.4691 17.526C12.641 17.3656 12.7131 17.1267 12.6593 16.899L12.2044 14.9839L18.8817 18.2924C19.1606 18.4306 19.4991 18.3568 19.6935 18.1156L24.3152 12.3925C24.6455 11.9832 24.9309 11.5412 25.1672 11.0722L25.4638 10.4832C25.7131 9.98553 26.2266 9.67112 26.7873 9.67229C27.3486 9.67053 27.8621 9.98493 28.1108 10.4838L28.8252 11.8995L28.5711 11.8491C28.3767 11.8105 28.1752 11.8608 28.0222 11.985C27.8686 12.1097 27.78 12.2958 27.78 12.492V15.2771C27.7841 16.5827 27.3492 17.8521 26.5433 18.8848C26.405 19.0616 26.2567 19.2303 26.0996 19.3901C26.876 18.0851 27.2848 16.5973 27.2836 15.0821C27.2836 14.8339 27.1418 14.6067 26.9179 14.4955L25.065 13.5774C24.7382 13.4158 24.3406 13.547 24.1769 13.8708C24.0133 14.1951 24.1462 14.5886 24.4729 14.7507L25.9489 15.482C25.8431 17.3221 25.0325 19.0528 23.6812 20.3192C22.3299 21.5862 20.5408 22.293 18.6808 22.2954ZM23.8094 22.2339V24.9183H22.4858V22.725C22.6921 22.6238 23.4938 22.3199 23.6894 22.2684C23.7296 22.2572 23.7692 22.245 23.8094 22.2339ZM18.1868 51.5182V56.6944L16.5967 57.2782L18.1868 51.5182ZM15.0079 72.5784C12.7095 73.4935 10.1493 73.5275 7.82662 72.6738C5.50404 71.8208 3.58548 70.1411 2.44453 67.9618C1.30359 65.7832 1.02176 63.2616 1.65515 60.8886L4.54025 50.0671L16.1658 53.8704L14.9818 58.1639C14.9162 58.401 14.99 58.6545 15.1732 58.8202C15.3558 58.9865 15.6175 59.0374 15.8497 58.9519L33.6544 52.4191C33.7028 52.4009 33.7501 52.3775 33.7938 52.3488L34.9944 51.5508C35.5965 51.1509 36.3292 50.9952 37.0436 51.1158C37.7573 51.2358 38.3978 51.6234 38.832 52.1972C38.9573 52.3623 39.1529 52.4589 39.3609 52.4589H48.2945C48.8428 52.4589 49.2871 52.8992 49.2871 53.4425C49.2871 53.9858 48.8428 54.4261 48.2945 54.4261H42.0079C41.6421 54.4261 41.3461 54.7194 41.3461 55.0819C41.3461 55.4443 41.6421 55.7376 42.0079 55.7376H48.9564C49.5047 55.7376 49.949 56.1779 49.949 56.7212C49.949 57.2645 49.5047 57.7048 48.9564 57.7048H41.3463C40.9805 57.7048 40.6845 57.9982 40.6845 58.3606C40.6845 58.723 40.9805 59.0163 41.3463 59.0163H47.6329C48.1812 59.0163 48.6255 59.4566 48.6255 59.9999C48.6255 60.5433 48.1812 60.9835 47.6329 60.9835H40.6844C40.3186 60.9835 40.0226 61.2769 40.0226 61.6393C40.0226 62.0017 40.3186 62.295 40.6844 62.295H46.3094C46.8577 62.295 47.302 62.7353 47.302 63.2786C47.302 63.822 46.8577 64.2622 46.3094 64.2622H36.0321C35.9476 64.2622 35.8643 64.2781 35.7857 64.3097L15.0079 72.5784ZM74.1047 71.7476C71.7425 73.3073 68.8342 73.829 66.0703 73.1879L44.7231 67.5632C44.6676 67.5485 44.6103 67.5409 44.553 67.5409H36.382C35.8337 67.5409 35.3893 67.1006 35.3893 66.5573C35.3893 66.014 35.8337 65.5737 36.382 65.5737H46.3083C47.1249 65.5743 47.8817 65.1481 48.2995 64.4519C48.7166 63.7564 48.7338 62.8945 48.3432 62.1831C48.9991 61.9741 49.5267 61.4858 49.7825 60.8517C50.0384 60.2182 49.9958 59.5039 49.6667 58.9044C50.371 58.6779 50.9235 58.1322 51.1557 57.4355L64.5681 60.1521C64.7932 60.1978 65.026 60.1246 65.1832 59.9583C65.3403 59.792 65.3994 59.5572 65.3391 59.3377L63.852 53.9191L75.5137 50.1047L78.335 60.6856C78.8827 62.7366 78.7687 64.9057 78.01 66.8894C77.2514 68.873 75.886 70.5713 74.1047 71.7476Z" fill="#39A8DA"/>
    <path d="M59.5293 23.255C59.7875 23.5109 60.2065 23.5109 60.4652 23.255L65.6434 18.1239C66.587 17.1889 66.9557 15.8259 66.6101 14.5484C66.2644 13.2709 65.2576 12.2732 63.9683 11.9307C62.6791 11.5888 61.3036 11.9541 60.3595 12.8891L59.9973 13.248L59.6351 12.8891C58.6909 11.9541 57.3154 11.5887 56.0262 11.9313C54.737 12.2732 53.7301 13.2714 53.3845 14.549C53.0394 15.8265 53.4081 17.1895 54.3517 18.1245L59.5293 23.255Z" fill="#FFBA1A"/>
    <path d="M16.7863 11.3439C17.0445 11.5998 17.4635 11.5998 17.7217 11.3439L20.8745 8.21972C21.5008 7.5833 21.7401 6.66587 21.5044 5.80809C21.268 4.95035 20.5921 4.28002 19.7265 4.04635C18.8609 3.81216 17.9349 4.04986 17.2921 4.6699L17.2543 4.70737L17.2165 4.6699H17.2171C16.5766 4.03581 15.6437 3.78758 14.7697 4.02002C13.8952 4.25187 13.2122 4.92869 12.9776 5.79524C12.7436 6.66175 12.9935 7.58621 13.6334 8.22036L16.7863 11.3439Z" fill="#FFBA1A"/>
</svg>
