<svg width="80" height="80" viewBox="0 0 80 80" fill="none" xmlns="http://www.w3.org/2000/svg">
    <path d="M66.1254 39.0335L60.8596 37.7919L61.5239 34.3621C61.5519 34.2174 61.5656 34.0691 61.5662 33.9208C61.5656 33.1672 61.1989 32.462 60.5864 32.0371C59.9738 31.6121 59.194 31.5226 58.5041 31.7974C57.8136 32.0722 57.3011 32.6763 57.1344 33.4112L53.1008 51.184L50.7924 42.184C50.3829 40.5877 49.4638 39.1743 48.1797 38.1658C46.8957 37.1567 45.3193 36.6095 43.6967 36.6095H28.6673V34.265C29.4471 33.9841 30.1215 33.4648 30.599 32.7777C31.0764 32.0913 31.3335 31.271 31.3341 30.4303V25.762H32.5342C33.2771 25.7614 33.9885 25.4612 34.5134 24.9273C35.0385 24.3934 35.3337 23.6694 35.3343 22.9146C35.3343 22.4727 35.2129 22.0399 34.9843 21.664C34.7557 21.2881 34.4289 20.9842 34.0402 20.7869C33.845 20.6876 33.6872 20.5266 33.5902 20.3281L33.314 19.759C33.1473 19.4182 32.9288 19.1065 32.6681 18.8341C31.9972 18.1313 31.0739 17.736 30.1108 17.7403H30.0412C28.9155 17.7566 27.8244 18.138 26.9273 18.8299C26.2487 19.3565 25.4189 19.641 24.5658 19.641C23.7081 19.6416 22.8861 19.9885 22.28 20.6047C21.674 21.2215 21.3335 22.0575 21.3335 22.9291V28.4666C21.3347 29.0683 21.5318 29.6525 21.8937 30.1283C22.255 30.6047 22.7616 30.9455 23.3336 31.098V36.6095H6.00391C4.41281 36.6095 2.88648 37.2523 1.76139 38.3964C0.635732 39.541 0.00357486 41.093 0.00357486 42.7112L2.07153e-06 67.6883C-0.00118839 69.3754 0.510751 71.0212 1.46556 72.4013C2.42037 73.7809 3.77167 74.8262 5.33366 75.3946V79.322C5.33366 79.5018 5.40391 79.6743 5.52891 79.8014C5.65391 79.9286 5.82357 80 6.00037 80H43.3358C43.5126 80 43.6822 79.9286 43.8072 79.8014C43.9323 79.6743 44.0025 79.5018 44.0025 79.322L44.0007 64.052L45.0329 68.0763C45.6823 70.6041 47.4134 72.7017 49.7498 73.7881C52.0863 74.8747 54.7793 74.8359 57.0842 73.6816C59.3897 72.5278 61.0618 70.3813 61.6399 67.8352L67.6236 41.4728C67.8712 40.379 67.2011 39.287 66.1254 39.0335ZM24.0004 37.9657C24.1772 37.9657 24.3468 37.8942 24.4719 37.7671C24.5969 37.64 24.6671 37.4675 24.6671 37.2877V30.508C24.6671 30.1345 24.3701 29.8313 24.0028 29.8301C23.4962 29.8282 23.0337 29.5359 22.8081 29.0746C22.5825 28.6133 22.6319 28.0625 22.9361 27.6503C23.2402 27.2387 23.7474 27.0365 24.2457 27.1279C24.7445 27.2199 25.1493 27.5897 25.2922 28.0843C25.3505 28.2889 25.5005 28.4541 25.6963 28.5298C25.8928 28.6049 26.1124 28.5825 26.2892 28.4681C27.2851 27.827 28.0524 26.8791 28.4792 25.7622H30.0013V30.4305C30.0001 31.1503 29.718 31.8403 29.2174 32.3488C28.7167 32.8573 28.0375 33.1424 27.3297 33.1424C27.1648 33.1424 26.9993 33.1267 26.8368 33.0958C26.6624 33.0601 26.4809 33.097 26.3332 33.1981C26.1856 33.2998 26.0838 33.4566 26.0505 33.6345C26.0177 33.8131 26.0564 33.9971 26.1576 34.1461C26.2588 34.295 26.4148 34.3967 26.5898 34.4281C26.835 34.4747 27.0844 34.4984 27.3339 34.4984V37.2877C27.3339 37.4675 27.4041 37.64 27.5291 37.7671C27.6541 37.8943 27.8238 37.9657 28.0006 37.9657H29.2625C29.0572 38.9953 28.3934 39.87 27.466 40.3331C26.5386 40.7967 25.4528 40.7967 24.5253 40.3331C23.5979 39.87 22.9342 38.9953 22.7288 37.9657L24.0004 37.9657ZM35.1273 60.6601L11.2326 73.7085C9.14975 74.846 6.63227 74.7872 4.60366 73.553C2.57505 72.3187 1.33323 70.0917 1.33323 67.6873L1.33502 56.9494H10.6689L10.6677 63.5166C10.6677 63.7557 10.7921 63.9772 10.9945 64.0995C11.1969 64.2218 11.4475 64.226 11.654 64.1116L23.6959 57.4203C23.8554 57.3313 23.9721 57.1806 24.0197 57.002L24.7197 54.3682C24.934 53.551 25.6495 52.973 26.4812 52.9463L26.6687 54.2514C26.7009 54.4766 26.8425 54.6697 27.0449 54.7665C27.2473 54.8634 27.4842 54.8507 27.6753 54.732L31.1184 52.5988C31.4405 52.399 31.8304 52.3476 32.1923 52.4572C32.5536 52.5661 32.8524 52.8258 33.0155 53.172L35.699 58.8815C36.0067 59.5341 35.7541 60.3174 35.1273 60.6601ZM38.8268 59.6613H37.1553C37.1898 59.1916 37.1023 58.7213 36.9029 58.2963L34.2195 52.5868C33.8938 51.8949 33.2962 51.375 32.5729 51.1564C31.8502 50.9379 31.0698 51.0408 30.4257 51.4403L27.8423 53.0402L27.7143 52.1516C27.7089 52.1128 27.6994 52.0753 27.6875 52.0384L30.4989 42.034H43.78L38.8268 59.6613ZM58.4333 33.7173C58.5368 33.2584 58.9625 32.9515 59.4226 33.0042C59.8827 33.0563 60.231 33.4515 60.2322 33.9219C60.2322 33.983 60.2262 34.0435 60.2143 34.1029L58.9595 40.311C58.8857 40.6518 58.888 41.0048 58.966 41.3449L56.8207 40.8244L58.4333 33.7173ZM56.5206 42.1447L59.8791 42.9601C60.2351 43.049 60.4524 43.4134 60.3672 43.7754C60.2821 44.1374 59.9262 44.3626 59.569 44.2785L56.2205 43.4649L56.5206 42.1447ZM60.3393 67.5309C59.8512 69.6791 58.4398 71.491 56.4939 72.4649C54.5485 73.4395 52.2758 73.4722 50.3037 72.5551C48.3317 71.638 46.8696 69.8674 46.322 67.7343L43.9992 58.6756V55.2229L52.0937 52.6291L52.4455 54.0001L51.127 59.617C51.0841 59.7925 51.1109 59.9783 51.2032 60.1333C51.2961 60.2877 51.4455 60.3984 51.6187 60.4408C51.7919 60.4826 51.9741 60.4523 52.1253 60.3567C52.2765 60.261 52.3842 60.1079 52.4235 59.9317L55.9213 44.7876L59.2601 45.5981C59.4131 45.6357 59.5703 45.6538 59.728 45.6538C60.2995 45.6532 60.843 45.4044 61.2222 44.9692C61.6007 44.5346 61.7781 43.9552 61.7091 43.3789L64.6164 44.0848C64.7955 44.1283 64.9789 44.1501 65.1628 44.1501C65.3295 44.1501 65.4962 44.1314 65.6593 44.0944L60.3393 67.5309ZM66.3231 41.1684L66.1332 42.0062C66.0737 42.2701 65.9117 42.4989 65.6849 42.6418C65.4587 42.7846 65.1855 42.8294 64.926 42.7665L61.0061 41.8143C60.4763 41.6829 60.1459 41.1466 60.2614 40.6048L60.5852 39.1206L65.8242 40.3561C66.182 40.4408 66.4052 40.8046 66.3231 41.1684Z" fill="#39A8DA"/>
    <path d="M43.3295 17.625H47.3298C47.6982 17.625 47.9965 17.9997 47.9965 18.303V23.7267C47.9965 24.1014 47.6982 24.4047 47.3298 24.4047H43.3295C42.9611 24.4047 42.6628 24.03 42.6628 23.7267V18.303C42.6628 17.9283 42.9611 17.625 43.3295 17.625Z" fill="#FFBA1A"/>
    <path d="M51.3298 14.9133H55.33C55.6985 14.9133 55.9967 15.288 55.9967 15.5913V23.7269C55.9967 24.1016 55.6985 24.4049 55.33 24.4049H51.3298C50.9613 24.4049 50.6631 24.0302 50.6631 23.7269V15.5913C50.6631 15.2166 50.9613 14.9133 51.3298 14.9133Z" fill="#FFBA1A"/>
    <path d="M59.3305 12.2019H63.3307C63.6992 12.2019 63.9974 12.5766 63.9974 12.8799V23.7273C63.9974 24.102 63.6992 24.4053 63.3307 24.4053H59.3305C58.962 24.4053 58.6638 24.0306 58.6638 23.7273V12.8799C58.6638 12.5052 58.962 12.2019 59.3305 12.2019Z" fill="#FFBA1A"/>
    <path d="M67.3308 8.13477H71.331C71.6995 8.13477 71.9977 8.50947 71.9977 8.81273V23.728C71.9977 24.1027 71.6995 24.406 71.331 24.406H67.3308C66.9623 24.406 66.6641 24.0313 66.6641 23.728V8.81273C66.6641 8.43803 66.9623 8.13477 67.3308 8.13477Z" fill="#FFBA1A"/>
    <path d="M35.3289 45.2326C35.3289 46.2974 34.48 47.1605 33.433 47.1605C32.386 47.1605 31.5371 46.2973 31.5371 45.2326C31.5371 44.1678 32.386 43.3047 33.433 43.3047C34.48 43.3047 35.3289 44.1679 35.3289 45.2326Z" fill="#FFBA1A"/>
    <path d="M64.1823 6.04825L59.4058 5.49014C59.0397 5.44716 58.7093 5.71411 58.6671 6.08639C58.6254 6.45806 58.8879 6.79462 59.2534 6.837L61.8494 7.14027L53.3125 11.6124L52.2458 9.22794V9.22734C52.1714 9.06148 52.0345 8.93255 51.866 8.8708C51.6969 8.80845 51.5106 8.81813 51.3493 8.89743L41.7059 13.6257C41.5446 13.7026 41.4208 13.8418 41.3619 14.0125C41.3024 14.1832 41.3125 14.3702 41.3893 14.5331C41.4667 14.6965 41.6048 14.8212 41.7726 14.8799C41.9411 14.9387 42.125 14.9272 42.2846 14.8472L51.3155 10.4205L52.3887 12.8219C52.4643 12.9907 52.6048 13.1209 52.7774 13.182C52.9495 13.2426 53.1388 13.2293 53.3013 13.1439L62.4465 8.35273L61.1798 10.6597C61 10.9866 61.1155 11.3994 61.4369 11.5822C61.7584 11.7644 62.1643 11.6476 62.3441 11.3207L64.6877 7.0519C64.796 6.85396 64.8002 6.61365 64.6984 6.41207C64.5966 6.21049 64.4026 6.07369 64.1817 6.04766L64.1823 6.04825Z" fill="#FFBA1A"/>
    <path d="M77.0531 25.8908C77.2364 25.4174 77.3311 24.9132 77.3317 24.4047V6.77757C77.3305 5.69888 76.9084 4.66494 76.159 3.90221C75.4089 3.1401 74.3922 2.71093 73.3314 2.70972H41.3296C40.2688 2.71093 39.2521 3.1401 38.502 3.90221C37.7526 4.66493 37.3305 5.69886 37.3293 6.77757V24.4047C37.3305 25.4834 37.7526 26.5173 38.502 27.2801C39.2521 28.0422 40.2688 28.4713 41.3296 28.4726H47.9967V31.8624C47.9967 32.1366 48.1592 32.3842 48.408 32.4889C48.6574 32.5936 48.9443 32.5361 49.1348 32.3418L52.9398 28.4725H66.1358C65.2828 30.1692 65.1012 32.1329 65.6275 33.9617C66.1537 35.7904 67.3484 37.3448 68.9663 38.3061C70.5836 39.2673 72.5022 39.5621 74.3274 39.1305C76.1519 38.6989 77.7455 37.5736 78.7801 35.9852C79.8146 34.3962 80.2123 32.4658 79.8914 30.5888C79.57 28.7117 78.5545 27.0306 77.0532 25.8909L77.0531 25.8908ZM72.2457 30.9617L73.5791 31.504H73.5785C74.1684 31.7431 74.6321 32.2244 74.8547 32.8291C75.0779 33.4338 75.0393 34.1063 74.7494 34.6808C74.4595 35.2558 73.9446 35.6796 73.3314 35.8478V36.6081C73.3314 36.9828 73.0332 37.2861 72.6647 37.2861C72.2962 37.2861 71.998 36.9828 71.998 36.6081V35.8097C71.5141 35.6493 71.0926 35.3381 70.7932 34.9199C70.4938 34.5016 70.3325 33.9979 70.3313 33.481V33.2183C70.3313 32.8436 70.6295 32.5403 70.998 32.5403C71.1748 32.5403 71.3444 32.6117 71.4694 32.7388C71.5945 32.866 71.6647 33.0385 71.6647 33.2183V33.4804C71.6659 34.0845 72.1475 34.5736 72.7415 34.5742C73.1838 34.5742 73.5642 34.2546 73.6481 33.8127C73.7315 33.3708 73.4951 32.9307 73.0844 32.7631L71.751 32.2207C71.1611 31.9816 70.6974 31.5004 70.4747 30.8956C70.2515 30.2909 70.2902 29.6184 70.5801 29.044C70.87 28.4689 71.3849 28.0452 71.998 27.8769V27.2861C71.998 26.9114 72.2963 26.6081 72.6647 26.6081C73.0332 26.6081 73.3315 26.9114 73.3315 27.2861V27.915C73.8154 28.0755 74.2374 28.3866 74.5363 28.8055C74.8357 29.2238 74.9976 29.728 74.9982 30.2456C74.9988 30.6215 74.7012 30.9278 74.3315 30.9314C74.1553 30.9332 73.9862 30.8636 73.8612 30.7377C73.7356 30.6124 73.6654 30.4411 73.6648 30.2619C73.6678 29.9689 73.5558 29.6869 73.354 29.4786C73.1517 29.2698 72.876 29.1517 72.5879 29.1505C72.1457 29.1505 71.7653 29.4701 71.6813 29.912C71.598 30.3539 71.8343 30.794 72.2451 30.9617H72.2457ZM75.9982 24.4048C75.9977 24.6627 75.9613 24.9194 75.8893 25.1663C74.4101 24.4278 72.7284 24.219 71.1177 24.5725C69.5063 24.9266 68.0598 25.8231 67.0122 27.1167H52.6638C52.487 27.1167 52.3173 27.1881 52.1923 27.3153L49.3303 30.2256V27.7946C49.3303 27.6148 49.2601 27.4423 49.1351 27.3151C49.0101 27.188 48.8404 27.1166 48.6636 27.1166H41.3299C40.6227 27.116 39.9453 26.8297 39.4453 26.3212C38.9452 25.8127 38.6637 25.1238 38.6631 24.4048V6.77761C38.6637 6.05849 38.9452 5.36963 39.4453 4.86117C39.9453 4.35272 40.6227 4.06638 41.3299 4.06577H73.3316C74.0388 4.06638 74.7162 4.35271 75.2162 4.86117C75.7162 5.36964 75.9978 6.05852 75.9984 6.77761L75.9982 24.4048Z" fill="#39A8DA"/>
    <path d="M24.1907 11.8384C24.3157 11.9655 24.4854 12.0369 24.6622 12.0369C24.839 12.0369 25.0086 11.9655 25.1336 11.8384L30.3505 6.53336C31.3012 5.56665 31.6726 4.15684 31.3244 2.83608C30.9761 1.51587 29.9618 0.48373 28.6623 0.130257C27.3634 -0.223246 25.9776 0.154471 25.027 1.12117L24.6621 1.49284L24.2972 1.12178V1.12117C23.3466 0.154462 21.9602 -0.223263 20.6614 0.130861C19.3625 0.484365 18.3481 1.51646 18.0005 2.83731C17.6523 4.15812 18.0237 5.5673 18.9744 6.53397L24.1907 11.8384Z" fill="#FFBA1A"/>
    <path d="M7.91719 22.575C8.04279 22.7021 8.21185 22.7736 8.38865 22.7736C8.56605 22.7736 8.73509 22.7021 8.86011 22.575L12.0365 19.345C12.6627 18.6858 12.9009 17.7397 12.6622 16.8559C12.424 15.9716 11.7448 15.2809 10.8757 15.0387C10.006 14.7965 9.07567 15.0381 8.4274 15.6749L8.38931 15.7136L8.35121 15.6749H8.3518C7.70593 15.0248 6.76893 14.7729 5.89102 15.0133C5.01359 15.2542 4.32842 15.9509 4.09145 16.8432C3.85453 17.7355 4.10217 18.6888 4.74208 19.3456L7.91719 22.575Z" fill="#FFBA1A"/>
</svg>
