<svg width="80" height="80" viewBox="0 0 80 80" fill="none" xmlns="http://www.w3.org/2000/svg">
    <path d="M16.4626 29.972C16.5876 30.0949 16.7573 30.164 16.9341 30.164C17.1109 30.164 17.2805 30.0949 17.4056 29.972L19.4463 27.9655C20.1529 27.2699 20.1826 26.1522 19.5129 25.4221C18.8438 24.692 17.7104 24.6053 16.9341 25.2248C16.1585 24.6059 15.0257 24.6932 14.3565 25.4227C13.6874 26.1528 13.7166 27.2698 14.4226 27.9655L16.4626 29.972Z" fill="#FFBA1A"/>
    <path d="M65.9999 52.4589C64.5903 52.4577 63.189 52.6667 61.8431 53.0783C61.2817 50.491 60.9328 47.8634 60.7989 45.2211L60.6334 41.967H70.0003C70.1771 41.967 70.3468 41.8979 70.4718 41.775C70.5968 41.652 70.6671 41.4851 70.6671 41.3112V33.4423C70.6671 33.2684 70.5968 33.1016 70.4718 32.9786C70.3468 32.8557 70.1771 32.7866 70.0003 32.7866H60.0972C59.8763 31.793 59.353 30.8891 58.5964 30.1953C57.8398 29.5015 56.8867 29.0512 55.8634 28.9043C56.1027 28.2994 56.0229 27.6174 55.6497 27.0823C55.277 26.5471 54.6585 26.2275 53.9989 26.2292H39.9977V21.8298C40.5847 20.8802 40.8228 19.7607 40.6716 18.6589C40.521 17.5576 39.99 16.54 39.1679 15.7777L38.5756 15.2261L38.575 15.2256C37.2886 14.0335 35.7123 13.1858 33.9972 12.7642V11.8461H36.1058C36.8874 11.8467 37.6255 11.4954 38.1107 10.893C38.5958 10.2905 38.7744 9.50303 38.5952 8.75532L37.41 3.79566C37.1142 2.56087 36.345 1.48595 35.2634 0.794986C34.1823 0.104112 32.871 -0.149986 31.6041 0.0859611C30.3367 0.321908 29.2111 1.02918 28.461 2.06143L25.1595 6.60771C24.7499 7.16743 24.5303 7.84074 24.5315 8.53042C24.5309 9.40923 24.8857 10.2529 25.5173 10.8741C26.1495 11.4959 27.0061 11.8455 27.9003 11.8455H29.9969V12.6078C28.6718 12.9069 27.4896 13.6388 26.6418 14.6844C25.7941 15.7295 25.3316 17.0263 25.3298 18.3636V29.9474V29.9468C25.3333 31.1722 24.8381 32.3473 23.9547 33.2108C23.132 34.0194 22.4039 34.9163 21.7843 35.8847C21.164 36.8566 20.6663 37.8993 20.3026 38.9896C19.3299 41.9024 17.3934 44.4106 14.8021 46.1149L10.9582 48.6348V48.6342C10.7338 48.7817 10.6213 49.0469 10.6737 49.3075C10.7261 49.5674 10.9326 49.7712 11.1969 49.8233L21.5907 51.8679L21.5913 51.8673C22.1949 51.9861 22.8098 52.0458 23.4259 52.0458C24.8892 52.0464 26.3333 51.7121 27.643 51.0704L29.2265 50.2923L29.4575 50.9727V50.9738L28.8223 51.9721L28.8205 51.9738L23.8499 56.4557C20.9859 53.6641 17.0374 52.2232 13.0156 52.5013C8.99375 52.7788 5.28875 54.7495 2.85044 57.9076C0.411525 61.0656 -0.523718 65.1044 0.283514 68.9897C1.09073 72.875 3.56182 76.2293 7.06444 78.1929C10.5677 80.1571 14.761 80.5401 18.5714 79.2438C22.3825 77.9481 25.4392 75.0986 26.9603 71.4265L31.4464 73.3873V73.3867C31.7036 73.4991 32.0042 73.4405 32.1989 73.2403C32.3929 73.0401 32.4388 72.7421 32.3132 72.4944L29.8165 67.5833L30.2761 66.8848H37.3974L37.0028 69.9316C36.9599 70.266 37.1814 70.5774 37.5159 70.653L49.8504 73.4252V73.4246C50.1308 73.4879 50.4207 73.3667 50.5695 73.1237C50.7183 72.8813 50.6915 72.5722 50.504 72.3579L47.2484 68.6412L48.3711 58.9362C49.698 56.5796 51.5583 54.5551 53.808 53.0182L59.7882 48.9256C59.9811 50.4777 60.2448 52.0129 60.5793 53.5322C56.2718 55.3114 53.1501 59.0861 52.2573 63.5966C51.3649 68.1066 52.818 72.7576 56.132 75.996C59.446 79.2342 64.1845 80.6336 68.7641 79.7268C73.3443 78.8193 77.1618 75.725 78.943 71.4773C80.7236 67.229 80.233 62.3876 77.6345 58.5692C75.0361 54.7506 70.672 52.4584 66.0002 52.4584L65.9999 52.4589ZM30.8304 6.55696C31.0102 6.55637 31.1828 6.6278 31.3078 6.75543C31.4388 6.88834 31.6215 6.96035 31.8097 6.95332C31.9978 6.94688 32.174 6.86257 32.2954 6.72088C32.8157 6.11257 33.1556 5.37544 33.2788 4.58969H33.5401C34.1604 4.59027 34.6635 5.08442 34.6641 5.69449V8.19621C34.6605 9.00886 34.0539 9.69744 33.2365 9.8157C32.908 9.86195 32.6639 10.1389 32.6639 10.465V12.5265C32.4859 12.5066 31.334 12.4586 31.334 12.4586H31.3304V8.51244C31.3304 8.18165 31.0798 7.90237 30.7459 7.86198C30.4012 7.81397 30.1518 7.51303 30.1744 7.1711C30.1964 6.82919 30.4821 6.56161 30.8304 6.55692L30.8304 6.55696ZM30.0756 14.6039C30.45 14.094 31.0459 13.7866 31.6852 13.7737C31.7786 13.7755 31.8721 13.7784 31.9643 13.7837C32.7489 13.868 33.4157 14.3849 33.6823 15.1156L38.0362 27.1057C38.1308 27.3663 38.3826 27.5407 38.6642 27.5407H53.9981C54.3666 27.5407 54.6648 27.8341 54.6648 28.1965C54.6648 28.5589 54.3666 28.8522 53.9981 28.8522H52.6647C52.4283 28.8522 52.2099 28.9752 52.0902 29.1754C51.2258 30.6245 49.6769 31.5472 47.9708 31.6286L38.0402 32.1186V32.1192C37.161 32.1619 36.2912 31.9184 35.5669 31.426C34.8424 30.9342 34.3031 30.2205 34.0323 29.3967L29.7796 16.4188C29.5742 15.8023 29.6837 15.1261 30.0748 14.6039L30.0756 14.6039ZM39.7866 48.4462L39.533 50.4058L33.683 59.2946L30.4322 49.6997L30.5203 49.6563C31.9882 48.9315 33.6462 48.6669 35.2719 48.8976C36.7917 49.1118 38.3419 48.9567 39.7866 48.4462L39.7866 48.4462ZM26.1764 56.137L25.093 57.842C24.9811 57.6991 24.868 57.5598 24.7495 57.4222L26.1764 56.137ZM23.8762 64.7209L22.6261 64.1963L23.4208 62.9445H23.4214C23.6303 63.5212 23.7827 64.1161 23.8774 64.7209L23.8762 64.7209ZM22.7648 61.5042L20.1794 65.5733H15.7088L21.7974 60.085H21.798C22.1617 60.5293 22.4849 61.0042 22.7647 61.5042L22.7648 61.5042ZM13.9956 76.0651C10.675 76.0681 7.5694 74.4492 5.70669 71.7455C3.84459 69.0411 3.46833 65.6043 4.70304 62.5721C5.93767 59.5404 8.62185 57.3087 11.8668 56.6167C15.1123 55.924 18.4953 56.8614 20.8961 59.1179L15.9523 63.5752C15.1701 63.0178 14.1801 62.8217 13.2395 63.0377C12.299 63.2537 11.4995 63.8609 11.0495 64.7011C10.5989 65.5419 10.5417 66.5331 10.8917 67.4184C11.2424 68.3036 11.9662 68.9962 12.8759 69.3159C13.7856 69.6356 14.7915 69.5512 15.6333 69.0846C16.4751 68.6186 17.0692 67.8159 17.2626 66.8849H19.3461L19.1509 67.1929C19.0491 67.3545 19.0229 67.5512 19.0794 67.7327C19.136 67.9148 19.2699 68.0635 19.4461 68.1408L23.303 69.8276C22.5661 71.6655 21.285 73.2427 19.6253 74.3545C17.9656 75.4669 16.0041 76.0629 13.9957 76.0653L13.9956 76.0651ZM29.5504 65.5733H27.98C27.8711 63.2507 27.1615 60.9936 25.918 59.0159L30.0035 52.5861V52.585L32.7556 60.7045L29.5504 65.5733ZM31.1387 65.5733L33.2947 62.297L34.4056 65.5733H31.1387ZM37.5673 65.5733H35.8112L34.9993 63.1775C35.9374 63.3461 36.887 63.4439 37.84 63.4691L37.5673 65.5733ZM34.5116 61.7395L34.2229 60.8871L39.1429 53.4116L38.0095 62.1623C36.832 62.1389 35.6599 61.9972 34.5122 61.7396L34.5116 61.7395ZM48.4872 46.33L45.9752 68.0497L38.8007 66.4314L40.8355 50.7265C40.8355 50.7207 40.8373 50.7148 40.8379 50.709L41.2135 47.8074C43.0173 46.8097 44.4359 45.2547 45.2495 43.3828L46.2663 41.0503C47.8777 42.319 48.7159 44.3115 48.4879 46.3291L48.4872 46.33ZM53.0459 51.9424H53.0465C51.4494 53.0343 50.0296 54.3581 48.836 55.8686C48.792 55.9242 48.7503 55.9833 48.7063 56.039L49.8123 46.4762L49.8129 46.4768C49.9635 45.1495 49.7379 43.8071 49.1611 42.5986C48.5842 41.3895 47.6788 40.3608 46.5442 39.6273C46.4912 39.55 46.4221 39.4856 46.3412 39.437L39.9978 35.6939V33.3351L48.0384 32.9381C50.0558 32.8415 51.9078 31.8128 53.0334 30.1635H55.127C56.0902 30.1629 57.0176 30.5265 57.7153 31.1799C58.4135 31.8327 58.8296 32.725 58.8773 33.6717L59.4678 45.2859C59.5047 46.0072 59.5565 46.725 59.6243 47.4399L53.0459 51.9424ZM68.0002 34.0987H69.3337V35.4102H68.0002V34.0987ZM68.0002 36.7217H69.3337V38.0332H68.0002V36.7217ZM68.0002 39.3446H69.3337V40.6561H68.0002V39.3446ZM65.3333 34.0987H66.6668V35.4102H65.3333V34.0987ZM65.3333 36.7217H66.6668V38.0332H65.3333V36.7217ZM65.3333 39.3446H66.6668V40.6561H65.3333V39.3446ZM62.6664 34.0987H63.9999V35.4102H62.6664V34.0987ZM62.6664 36.7217H63.9999V38.0332H62.6664V36.7217ZM62.6664 39.3446H63.9999V40.6561H62.6664V39.3446ZM60.2328 34.0987H61.3329V35.4102H60.3001L60.2328 34.0987ZM60.3662 36.7217H61.3329V38.0332H60.4335L60.3662 36.7217ZM60.5662 40.6561L60.4995 39.3446H61.3329V40.6561H60.5662ZM66 76.0662C62.9646 76.0662 60.0941 74.7108 58.1957 72.3811C56.298 70.0515 55.5788 67.0006 56.2408 64.0872C56.9028 61.1737 58.8737 58.7135 61.5996 57.4004C62.4473 60.1592 63.5332 62.8425 64.8439 65.4204L65.4047 66.5234C65.569 66.8472 65.9696 66.9784 66.2988 66.8168C66.6286 66.6546 66.7619 66.2606 66.597 65.9368L66.0363 64.8337C64.7397 62.2851 63.67 59.6305 62.839 56.9004C65.6208 55.9888 68.6693 56.3231 71.1779 57.8161C73.6865 59.3091 75.4027 61.8097 75.8724 64.6563C76.3415 67.5029 75.5176 70.4087 73.6168 72.6048C71.7166 74.8009 68.9325 76.0668 66.0002 76.0662L66 76.0662Z" fill="#39A8DA"/>
    <path d="M6.49769 37.6771C6.6227 37.8001 6.79236 37.8692 6.96917 37.8692C7.14598 37.8692 7.31562 37.8001 7.44065 37.6771L10.6171 34.553H10.6166C11.0993 34.0834 11.3714 33.4435 11.3732 32.7755C11.3749 32.1075 11.1059 31.4663 10.6255 30.9938C10.1457 30.5219 9.49384 30.2573 8.81459 30.259C8.13537 30.2602 7.4847 30.5284 7.00673 31.0026L6.96864 31.0401L6.93054 31.0026H6.93113C6.45312 30.5284 5.80307 30.2602 5.12389 30.259C4.44467 30.2573 3.79282 30.5219 3.31238 30.9938C2.83199 31.4663 2.56291 32.1074 2.56471 32.7755C2.5665 33.4436 2.83914 34.0835 3.32131 34.553L6.49769 37.6771Z" fill="#FFBA1A"/>
    <path d="M52.7372 21.9441C52.8622 22.067 53.0319 22.1361 53.2087 22.1361C53.3855 22.1361 53.5552 22.067 53.6802 21.9441L58.8972 16.8129C59.8479 15.8779 60.2194 14.5149 59.8711 13.2375C59.5235 11.9599 58.5085 10.9622 57.2096 10.6197C55.9113 10.2772 54.5248 10.6426 53.5742 11.5776L53.2093 11.9365L52.8444 11.5776L52.8438 11.5782C51.8931 10.6426 50.5073 10.2772 49.2084 10.6197C47.9095 10.9623 46.8951 11.9599 46.5469 13.2375C46.1992 14.515 46.5701 15.878 47.5214 16.8129L52.7372 21.9441Z" fill="#FFBA1A"/>
</svg>
