<svg width="59" height="44" viewBox="0 0 59 44" fill="none" xmlns="http://www.w3.org/2000/svg">
    <path d="M56.7597 35.2536C57.795 34.3258 58.4716 33.0433 58.6657 31.6413C58.7001 31.3911 58.7173 31.1389 58.7173 30.8861C58.7149 29.7335 58.3532 28.6123 57.6861 27.6886C56.8035 26.4632 56.5967 24.8531 57.1406 23.4326L57.4535 22.6241C57.6476 22.1229 57.6955 21.5739 57.5907 21.0449C57.4858 20.5158 57.2332 20.0302 56.8642 19.648C56.4644 19.2349 56.2818 18.6482 56.3731 18.0717L56.5017 17.281C56.5336 17.0786 56.55 16.8746 56.55 16.6698C56.548 15.6399 56.129 14.6575 55.3947 13.9612C54.6608 13.2644 53.6778 12.9169 52.6847 13.0029C51.6915 13.0888 50.7786 13.6001 50.1663 14.4128C49.5545 15.226 49.2993 16.2663 49.4631 17.2827L49.5917 18.0734C49.6073 18.1716 49.6143 18.2702 49.6143 18.3692C49.613 18.8488 49.4287 19.3081 49.1019 19.648C48.7321 20.0298 48.4794 20.5157 48.3742 21.0444C48.2693 21.5735 48.3168 22.123 48.5114 22.6241L48.8243 23.4326C48.8263 23.4372 48.8279 23.4419 48.8288 23.4466L31.5076 1.06795C30.9854 0.392807 30.1949 0 29.3587 0C28.5224 0 27.7319 0.392807 27.2098 1.06795L9.8886 23.4466C9.88942 23.4419 9.89105 23.4372 9.8931 23.4326L10.206 22.6233C10.4005 22.1221 10.448 21.5727 10.3428 21.044C10.2379 20.5153 9.98525 20.0298 9.61543 19.648C9.28862 19.3081 9.10432 18.8489 9.1031 18.3693C9.10269 18.2698 9.11088 18.1703 9.12726 18.0717L9.25462 17.2823C9.41844 16.266 9.16288 15.226 8.55103 14.4129C7.93876 13.6002 7.02587 13.0888 6.03268 13.0029C5.03953 12.917 4.05659 13.2645 3.32269 13.9612C2.58837 14.6575 2.16941 15.6399 2.16731 16.6698C2.16772 16.8751 2.18369 17.0799 2.21564 17.2827L2.343 18.0721C2.43515 18.649 2.2529 19.2357 1.85318 19.6493C1.48419 20.0311 1.23149 20.5166 1.12665 21.0453C1.02181 21.5744 1.06972 22.123 1.26385 22.6241L1.57674 23.4326C2.12062 24.8531 1.91379 26.4633 1.03123 27.6887C0.36408 28.6123 0.00245334 29.7335 0 30.8862C0 31.1389 0.0172012 31.3911 0.0516035 31.6413C0.235898 32.9709 0.854726 34.1954 1.8049 35.1113C2.75505 36.0277 3.97999 36.5806 5.27617 36.6783V38.9717C4.25435 38.4248 3.03105 38.468 2.04772 39.0851C1.06399 39.7023 0.463219 40.8045 0.461122 41.9939V42.8566C0.461122 42.9823 0.509449 43.1029 0.595448 43.1918C0.681446 43.2807 0.798173 43.3307 0.919813 43.3307H9.17624C9.29788 43.3307 9.41459 43.2807 9.50061 43.1918C9.58662 43.103 9.63493 42.9823 9.63493 42.8566C9.63453 42.228 9.39248 41.6257 8.96246 41.1812C8.53243 40.7368 7.94965 40.4866 7.34147 40.4862H6.70749L6.70053 40.4718C6.56579 40.1933 6.39541 39.9351 6.19352 39.704V36.6783C7.96894 36.5357 9.57923 35.549 10.5523 34.0078V42.8565C10.5523 42.9822 10.6006 43.1029 10.6866 43.1917C10.7726 43.2806 10.8893 43.3306 11.011 43.3306H47.7062C47.8279 43.3306 47.9446 43.2806 48.0306 43.1917C48.1166 43.1029 48.1649 42.9822 48.1649 42.8565V34.0078C49.138 35.549 50.7484 36.5356 52.5237 36.6783V39.704C52.3218 39.9351 52.1514 40.1933 52.0167 40.4718L52.0097 40.4862H51.3757C50.7676 40.4866 50.1848 40.7368 49.7547 41.1812C49.3247 41.6257 49.0827 42.228 49.0823 42.8566C49.0823 42.9823 49.1306 43.1029 49.2166 43.1918C49.3026 43.2807 49.4193 43.3307 49.541 43.3307H57.7974C57.919 43.3307 58.0357 43.2807 58.1218 43.1918C58.2078 43.103 58.2561 42.9823 58.2561 42.8566V41.9939C58.254 40.8045 57.6532 39.7023 56.6695 39.0851C55.6862 38.468 54.4628 38.4248 53.441 38.9717V36.6783C54.6672 36.5869 55.8317 36.087 56.7597 35.2536ZM6.19362 35.7264C6.05724 35.7395 5.91963 35.7454 5.7808 35.7454H5.68783C5.55023 35.7454 5.41262 35.7395 5.27624 35.7264V33.6286L2.72843 31.8733C2.51752 31.7281 2.46018 31.4335 2.60107 31.2155C2.74154 30.9975 3.02659 30.9387 3.2375 31.0843L5.27619 32.4901V16.3086C5.27619 16.0466 5.48177 15.8345 5.73488 15.8345C5.98839 15.8345 6.19357 16.0466 6.19357 16.3086V22.1787L7.36446 21.573C7.59135 21.4558 7.86698 21.551 7.98042 21.7855C8.09345 22.0196 8.00171 22.3049 7.77483 22.4217L6.19358 23.2382L6.19362 35.7264ZM10.7608 29.9071L10.2784 30.5306C9.76316 31.1812 8.95304 31.5012 8.14952 31.3717C7.34558 31.2422 6.66861 30.6821 6.37001 29.8999C6.07104 29.1181 6.19554 28.231 6.69683 27.5689L8.78384 24.8725C8.9448 24.6778 9.22616 24.6503 9.41946 24.8103C9.61318 24.9703 9.6484 25.2603 9.49973 25.4651L7.41272 28.1615C6.93806 28.7752 7.03429 29.6701 7.62814 30.1606C8.22198 30.6512 9.08819 30.5517 9.56281 29.938L10.0457 29.3145C10.1202 29.212 10.2316 29.1452 10.3549 29.1291C10.4777 29.113 10.6022 29.149 10.6989 29.2294C10.7959 29.3094 10.857 29.4271 10.8689 29.5545C10.8803 29.6823 10.8411 29.8098 10.7608 29.9071ZM34.4041 42.3827H24.3129V41.4345H34.4041V42.3827ZM25.689 34.3233C25.689 33.9398 25.9126 33.594 26.2554 33.4476C26.5982 33.3007 26.9925 33.3815 27.2551 33.6529C27.5176 33.9242 27.5958 34.3318 27.4537 34.6861C27.312 35.0404 26.9774 35.2715 26.6064 35.2715C26.0997 35.2715 25.689 34.8469 25.689 34.3233ZM47.2469 42.3827H35.3209V40.9604C35.3209 40.8347 35.2726 40.7141 35.1866 40.6252C35.1006 40.5363 34.9839 40.4864 34.8623 40.4864H34.4036V24.8413C34.4036 24.7155 34.3552 24.5949 34.2692 24.506C34.1832 24.4171 34.0665 24.3672 33.9449 24.3672H24.7711C24.5176 24.3672 24.3124 24.5793 24.3124 24.8413V40.4864H23.8537C23.6002 40.4864 23.395 40.6984 23.395 40.9604V42.3827H11.469V28.9926L29.3574 5.88144L47.2459 28.9926L47.2469 42.3827ZM51.6618 30.9008C51.1867 31.2932 50.5806 31.4748 49.9761 31.4053C49.3716 31.3359 48.8183 31.0214 48.4382 30.5308L47.9623 29.9158C47.8137 29.7109 47.8489 29.421 48.0422 29.261C48.2355 29.101 48.5173 29.1285 48.6778 29.3232L49.1537 29.9382C49.6284 30.552 50.4946 30.6515 51.0884 30.1609C51.6822 29.6703 51.7785 28.7755 51.3038 28.1617L49.3167 25.5958C49.1582 25.3913 49.1906 25.0925 49.3884 24.9291C49.5862 24.7653 49.8749 24.7987 50.0334 25.0032L52.0197 27.5691C52.3989 28.0601 52.5742 28.6866 52.507 29.3114C52.4403 29.9357 52.136 30.5075 51.6618 30.9008ZM53.0288 35.7457H52.9359C52.797 35.7457 52.6594 35.7398 52.523 35.7266V23.2381L50.9418 22.4216C50.7149 22.3048 50.6231 22.019 50.7362 21.785C50.8496 21.5505 51.1253 21.4556 51.3521 21.5729L52.523 22.1786V16.3081C52.523 16.0461 52.7282 15.834 52.9817 15.834C53.2348 15.834 53.4404 16.0461 53.4404 16.3081V32.4895L55.4791 31.0838C55.69 30.9382 55.9751 30.9974 56.1155 31.2154C56.2564 31.4334 56.1991 31.728 55.9882 31.8732L53.44 33.6285V35.7263C53.304 35.7394 53.1664 35.7457 53.0288 35.7457Z" fill="#39A8DA"/>
</svg>
