<svg width="60" height="60" viewBox="0 0 60 60" fill="none" xmlns="http://www.w3.org/2000/svg">
    <path d="M59.5037 0.168176H29.7395C29.4653 0.168176 29.2434 0.394983 29.2434 0.675218V13.9777C28.5591 13.568 27.7805 13.352 26.9876 13.3516H19.8181V12.1627C20.3979 11.9522 20.9002 11.5638 21.2554 11.0504C21.6106 10.537 21.8015 9.92404 21.8024 9.29517V5.99934H22.6953C23.2477 5.99843 23.777 5.77388 24.1676 5.37459C24.5582 4.9753 24.7779 4.4343 24.7788 3.8698C24.7792 3.53932 24.6889 3.21518 24.5188 2.93404C24.3487 2.6529 24.1047 2.4261 23.815 2.27897C23.6702 2.20382 23.5528 2.08294 23.4802 1.93399L23.2755 1.51206C23.0558 1.05799 22.7157 0.675902 22.2949 0.408798C21.8737 0.141694 21.3878 0 20.8922 0H20.8399C20.0024 0.00769615 19.1896 0.293818 18.5248 0.814883C18.2737 1.01046 17.9928 1.16302 17.6939 1.26624C17.3949 1.36991 17.0818 1.42243 16.766 1.42198C16.1281 1.42198 15.5164 1.68139 15.0651 2.14271C14.6142 2.60358 14.3609 3.22923 14.3614 3.88114V8.02254C14.3622 8.47209 14.5084 8.90941 14.7777 9.26529C15.047 9.62112 15.4239 9.876 15.8496 9.98964V13.3515H4.32601C2.91355 13.3511 1.58964 14.056 0.780391 15.2393C-0.0292619 16.4228 -0.22193 17.9358 0.263504 19.2916L2.45596 25.4255V59.493C2.45596 59.6274 2.50823 59.7564 2.60123 59.8515C2.69424 59.9466 2.82048 60 2.95203 60H14.8577V52.9014C14.8577 52.6212 15.0796 52.3944 15.3538 52.3944C15.6279 52.3944 15.8498 52.6212 15.8498 52.9014V60H26.7931C26.9246 60 27.0508 59.9466 27.1439 59.8515C27.2369 59.7564 27.2891 59.6274 27.2891 59.493V39.7189H29.2437V59.493C29.2437 59.6274 29.296 59.7564 29.389 59.8515C29.482 59.9466 29.6082 60 29.7398 60H59.5039C59.6355 60 59.7617 59.9466 59.8547 59.8515C59.9477 59.7565 60 59.6274 60 59.493V0.676052C60 0.541591 59.9477 0.412576 59.8547 0.317495C59.7617 0.222415 59.6352 0.168176 59.5037 0.168176ZM16.3462 14.3654C16.4778 14.3654 16.604 14.3119 16.697 14.2169C16.79 14.1218 16.8423 13.9928 16.8423 13.8583V9.5484C16.8423 9.26907 16.6213 9.04226 16.3475 9.04136C15.9706 9.04 15.6264 8.82134 15.4586 8.47637C15.2907 8.13094 15.3279 7.71852 15.5543 7.41067C15.781 7.10283 16.1584 6.95162 16.5296 7.02088C16.9003 7.0897 17.2015 7.36721 17.3073 7.73708C17.3512 7.8901 17.4624 8.01324 17.6085 8.06938C17.7542 8.12552 17.9172 8.10831 18.0492 8.0232C18.7898 7.54378 19.3611 6.83435 19.6787 5.99909H20.8108V9.29492C20.8104 9.90835 20.538 10.4892 20.0707 10.874C19.603 11.2588 18.9904 11.4068 18.4036 11.2769C18.136 11.2176 17.8716 11.391 17.8136 11.6649C17.7551 11.9383 17.9252 12.2086 18.1927 12.2679C18.4009 12.3141 18.6135 12.3372 18.8266 12.3372V13.8583C18.8266 13.9928 18.8788 14.1218 18.9718 14.2169C19.0648 14.3119 19.1911 14.3653 19.3226 14.3653H20.2652C20.1119 15.135 19.6181 15.7882 18.9284 16.1346C18.2388 16.4809 17.4309 16.4809 16.7413 16.1346C16.0517 15.7883 15.5578 15.135 15.4046 14.3653L16.3462 14.3654ZM1.19539 18.9428C0.822009 17.8979 0.971272 16.7322 1.5949 15.8204C2.21853 14.9087 3.23856 14.3654 4.32731 14.3654H14.3984C14.5596 15.5003 15.2474 16.4859 16.2449 17.0115C17.2428 17.5366 18.4271 17.5366 19.425 17.0115C20.4225 16.4859 21.1103 15.5003 21.2716 14.3654H26.9888C27.8157 14.3658 28.6157 14.6673 29.2446 15.216V27.2506L27.29 27.577V18.9288C27.29 18.6485 27.0681 18.4217 26.794 18.4217C26.5202 18.4217 26.2979 18.6485 26.2979 18.9288V31.6054H14.3934L9.66694 19.514C9.56507 19.2542 9.27629 19.1274 9.02205 19.2315C8.76737 19.3352 8.6438 19.6304 8.74523 19.8907L11.4068 26.6991L4.97601 29.5159L1.19539 18.9428ZM29.2451 28.2782V29.6604C29.1504 29.7817 29.0737 29.9167 29.0175 30.0606L28.4133 31.6048H27.2905V28.6042L29.2451 28.2782ZM26.2984 42.7594H3.44976V28.1994L5.66263 34.389C6.22424 35.9486 7.23984 37.2954 8.5726 38.2479C9.90535 39.2004 11.4914 39.7134 13.1174 39.717H26.2987L26.2984 42.7594ZM13.1172 38.703C11.6945 38.6999 10.3064 38.2512 9.14021 37.4178C7.97402 36.5843 7.08552 35.4059 6.59387 34.0409L5.31645 30.469L11.7747 27.64L13.5963 32.2998C13.6716 32.4922 13.8545 32.619 14.0579 32.6185H28.7494C28.9523 32.6185 29.1348 32.4922 29.2101 32.2998L29.9391 30.4365C30.045 30.1666 30.3342 30.024 30.6066 30.1064C30.879 30.1893 31.0446 30.4704 30.9893 30.7556L30.7435 32.0119C30.7142 32.1613 30.7519 32.3152 30.8458 32.4329C30.9401 32.5502 31.081 32.6186 31.2298 32.6186H31.5861C31.9285 32.619 32.2057 32.9024 32.2062 33.2524V38.0692C32.2057 38.4192 31.9285 38.7026 31.5861 38.703L13.1172 38.703ZM57.0252 56.9566H32.2218V39.7171C32 39.5 33.1969 39.4095 33.1982 38.0692V33.2524C33.1969 31.9121 32.2218 32.2998 32.2218 31.6045V3.21008H57.0252V56.9566Z" fill="#FFBA1A"/>
    <rect x="36.8635" y="8" width="14.3182" height="2" fill="#FFBA1A"/>
    <rect x="34.5" y="5.5" width="20" height="11" stroke="#FFBA1A"/>
    <rect x="36.8635" y="11" width="8.59091" height="2" fill="#FFBA1A"/>
    <rect x="36.8635" y="46" width="14.3182" height="2" fill="#FFBA1A"/>
    <rect x="34.5" y="43.5" width="20" height="11" stroke="#FFBA1A"/>
    <rect x="37" y="49" width="14" height="2" fill="#FFBA1A"/>
    <rect x="34.5" y="19.5" width="20" height="21" stroke="#FFBA1A"/>
    <rect x="36" y="22" width="17" height="10" fill="#FFBA1A"/>
    <rect width="13.3636" height="2" transform="matrix(1 0 0 -1 38 35)" fill="#FFBA1A"/>
    <rect width="13.3636" height="2" transform="matrix(1 0 0 -1 38 38)" fill="#FFBA1A"/>
</svg>
