<svg width="52" height="62" viewBox="0 0 52 62" fill="none" xmlns="http://www.w3.org/2000/svg">
    <path d="M49.2358 25.008H43.7651V23.6636C43.7646 23.1915 43.5762 22.7388 43.2422 22.4049C42.9082 22.0709 42.4556 21.8825 41.9835 21.882H41.6811V12.2172C45.9707 11.5166 48.9753 9.60381 48.9753 7.29408C48.9753 5.12309 46.3079 3.23947 42.157 2.45705V2.45752C41.6187 1.46201 40.7381 0.694883 39.678 0.297603C38.6178 -0.099201 37.4502 -0.099201 36.3901 0.297603C35.3299 0.694872 34.4493 1.46197 33.9111 2.45752C29.7603 3.23904 27.0928 5.12261 27.0928 7.2936C27.0928 9.60332 30.0974 11.5161 34.387 12.2172V21.882H34.0846C33.6125 21.8824 33.1598 22.0708 32.8259 22.4049C32.4919 22.7389 32.3034 23.1915 32.303 23.6636V25.008H26.9626C26.4443 25.0085 25.948 25.2146 25.5818 25.5811C25.2153 25.9472 25.0092 26.4436 25.0087 26.9618V36.0465L24.5007 36.4703H23.9667V34.6468C23.9658 34.0253 23.7188 33.4294 23.2792 32.9898C22.8396 32.5502 22.2436 32.3032 21.6222 32.3023H16.933C16.3115 32.3032 15.7156 32.5502 15.276 32.9898C14.8364 33.4294 14.5894 34.0253 14.5885 34.6468V36.4703H11.8424C11.6563 36.1484 11.313 35.9498 10.9413 35.9493H7.81525C7.44356 35.9498 7.10026 36.1484 6.91418 36.4703H0.521014C0.233057 36.4703 0 36.7034 0 36.9913V60.958C0 61.0961 0.0548933 61.2287 0.152577 61.3264C0.250261 61.4241 0.382847 61.479 0.521014 61.479H6.91418C7.10026 61.8009 7.44356 61.9995 7.81525 62H10.9413C11.313 61.9995 11.6563 61.8009 11.8424 61.479H26.713C26.8991 61.8009 27.2424 61.9995 27.6141 62H30.7402C31.1119 61.9995 31.4552 61.8009 31.6413 61.479H38.0344C38.1726 61.479 38.3052 61.4241 38.4029 61.3264C38.5006 61.2287 38.5554 61.0961 38.5554 60.958V58.3529H46.1315C45.8831 58.7809 45.7947 59.2828 45.8827 59.7698C45.9706 60.2569 46.2287 60.6965 46.6107 61.0105C46.9931 61.3245 47.475 61.4924 47.9695 61.4836C48.464 61.4752 48.9399 61.291 49.3111 60.964C49.6824 60.6369 49.9252 60.1885 49.9959 59.6987C50.0671 59.2093 49.9615 58.7101 49.6982 58.2915C50.088 58.1892 50.4327 57.9608 50.6788 57.6421C50.9253 57.3234 51.0589 56.9322 51.0598 56.5294V26.831C51.0593 26.3476 50.8672 25.8839 50.5253 25.542C50.1834 25.2 49.7196 25.0079 49.2363 25.0075L49.2358 25.008ZM1.04173 60.437V58.3529H1.56274C2.16331 58.3534 2.7448 58.5613 3.20998 58.9409C3.6747 59.3205 3.99475 59.849 4.11571 60.4369L1.04173 60.437ZM1.56274 39.5964H1.04173C1.04173 39.5964 0.585011 38.186 1.04173 37.5124C1.71538 36.5187 4.11565 37.5124 4.11565 37.5124C3.99471 38.1004 3.67465 38.6288 3.20992 39.0083C2.74474 39.3879 2.1633 39.5959 1.56274 39.5964ZM7.81491 36.9913H10.941V42.2015H9.89896V41.1595C9.89896 40.8715 9.66591 40.6384 9.37795 40.6384C9.08999 40.6384 8.85694 40.8715 8.85694 41.1595V42.2015H7.81491V36.9913ZM10.941 60.958H7.81491V46.8912H10.941V60.958ZM11.462 45.848H7.29389V43.2429H8.85694V44.2849C8.85694 44.5729 9.08999 44.806 9.37795 44.806C9.66591 44.806 9.89896 44.5729 9.89896 44.2849V43.2429H11.462V45.848ZM15.6301 34.6462C15.631 33.9271 16.2135 33.3446 16.9327 33.3437H21.6218C22.341 33.3446 22.9235 33.927 22.9244 34.6462V36.4697H15.6302L15.6301 34.6462ZM41.9833 22.9228C42.3917 22.9232 42.7225 23.254 42.7229 23.6624V25.0068H41.6809V22.9228L41.9833 22.9228ZM34.3867 4.6879C34.3867 3.38494 35.0817 2.18096 36.2102 1.5293C37.3388 0.87803 38.7287 0.87803 39.8573 1.5293C40.9859 2.18104 41.6808 3.38494 41.6808 4.6879V6.10398C41.6799 6.76036 41.1482 7.29208 40.4918 7.29301H35.5757C34.9193 7.29208 34.3876 6.76036 34.3866 6.10398L34.3867 4.6879ZM35.4288 25.0068V22.9228H40.6389V25.0068H35.4288ZM35.4288 21.8808V12.3583C36.2935 12.455 37.1634 12.503 38.0338 12.5025C38.9042 12.503 39.7741 12.455 40.6389 12.3583V21.8808H35.4288ZM33.3447 23.6624C33.3452 23.254 33.6759 22.9233 34.0844 22.9228H34.3867V25.0068H33.3447V23.6624ZM30.7396 60.9563H27.6135V46.8895H30.7396V60.9563ZM31.2606 45.8463H27.0925V43.2412H28.6556V44.2833C28.6556 44.5712 28.8886 44.8043 29.1766 44.8043C29.4645 44.8043 29.6976 44.5712 29.6976 44.2833V43.2412H31.2606V45.8463ZM29.1766 40.6362C28.8886 40.6362 28.6556 40.8692 28.6556 41.1572V42.1992H27.6135V36.9891H30.7396V42.1992H29.6976V41.1572C29.6976 41.019 29.6427 40.8865 29.545 40.7888C29.4473 40.6911 29.3148 40.6362 29.1766 40.6362ZM37.5128 60.4347H34.4389C34.5598 59.8467 34.8799 59.3182 35.3446 58.9387C35.8098 58.5591 36.3913 58.3512 36.9919 58.3507H37.5129L37.5128 60.4347ZM37.5128 39.5941H36.9918C36.3912 39.5937 35.8097 39.3857 35.3446 39.0061C34.8798 38.6265 34.5598 38.0981 34.4388 37.5102H37.5128L37.5128 39.5941ZM50.0171 52.0985H49.7566C49.2733 52.0989 48.8095 52.2911 48.4676 52.633C48.1257 52.9749 47.9336 53.4387 47.9331 53.922V55.2246H46.6305C46.1472 55.2251 45.6834 55.4172 45.3415 55.7591C44.9996 56.101 44.8075 56.5648 44.807 57.0481V57.3086H38.5548V36.9897C38.5548 36.8515 38.4999 36.719 38.4022 36.6213C38.3046 36.5235 38.172 36.4687 38.0338 36.4687H31.6406C31.4546 36.1468 31.1113 35.9481 30.7396 35.9477H27.6135C27.2418 35.9481 26.8985 36.1468 26.7124 36.4687H26.0504V31.2585H26.311C26.7943 31.2581 27.2581 31.0659 27.6 30.724C27.9419 30.3821 28.134 29.9183 28.1345 29.435V28.1324H29.4371C29.9204 28.132 30.3842 27.9398 30.7261 27.5979C31.068 27.256 31.2601 26.7922 31.2606 26.3089V26.0484H35.4287V27.351C35.4292 27.8343 35.6213 28.2981 35.9632 28.64C36.3051 28.9819 36.7689 29.174 37.2522 29.1745H38.8153C39.2986 29.174 39.7624 28.9819 40.1043 28.64C40.4462 28.2981 40.6383 27.8343 40.6388 27.351V26.0484H44.8069V26.3089C44.8074 26.7922 44.9995 27.256 45.3414 27.5979C45.6833 27.9398 46.1471 28.132 46.6304 28.1324H47.933V29.435C47.9335 29.9183 48.1256 30.3821 48.4675 30.724C48.8094 31.0659 49.2732 31.2581 49.7565 31.2585H50.0171L50.0171 52.0985Z" fill="#39A8DA"/>
    <path d="M34.127 51.6221L35.0266 52.211L34.9606 51.2876L34.127 51.6221Z" fill="#39A8DA"/>
    <path d="M46.3704 29.1763C46.0824 29.1763 45.8494 29.4093 45.8494 29.6973V53.6639C45.8494 53.9519 46.0824 54.1849 46.3704 54.1849C46.6583 54.1849 46.8914 53.9519 46.8914 53.6639V29.6973C46.8914 29.5591 46.8365 29.4265 46.7388 29.3288C46.6411 29.2311 46.5085 29.1763 46.3704 29.1763Z" fill="#39A8DA"/>
    <path d="M48.4546 32.3013C48.1667 32.3013 47.9336 32.5343 47.9336 32.8223V50.5367C47.9336 50.8247 48.1667 51.0578 48.4546 51.0578C48.7426 51.0578 48.9756 50.8247 48.9756 50.5367V32.8223C48.9756 32.6841 48.9207 32.5515 48.823 32.4538C48.7254 32.3561 48.5928 32.3013 48.4546 32.3013Z" fill="#39A8DA"/>
    <path d="M44.2866 28.1328C43.9987 28.1328 43.7656 28.3659 43.7656 28.6538V54.7045C43.7656 54.9925 43.9987 55.2255 44.2866 55.2255C44.5746 55.2255 44.8077 54.9925 44.8077 54.7045V28.6538C44.8077 28.5157 44.7528 28.3831 44.6551 28.2854C44.5574 28.1877 44.4248 28.1328 44.2866 28.1328Z" fill="#39A8DA"/>
    <path d="M42.2024 28.1328C41.9145 28.1328 41.6814 28.3659 41.6814 28.6538V55.7465C41.6814 56.0345 41.9145 56.2676 42.2024 56.2676C42.4904 56.2676 42.7234 56.0345 42.7234 55.7465V28.6538C42.7234 28.5157 42.6685 28.3831 42.5708 28.2854C42.4732 28.1877 42.3406 28.1328 42.2024 28.1328Z" fill="#39A8DA"/>
    <path d="M40.1184 30.2168C39.8305 30.2168 39.5974 30.4499 39.5974 30.7378V55.7465C39.5974 56.0344 39.8305 56.2675 40.1184 56.2675C40.4064 56.2675 40.6394 56.0344 40.6394 55.7465V30.7378C40.6394 30.5996 40.5845 30.4671 40.4869 30.3694C40.3892 30.2717 40.2566 30.2168 40.1184 30.2168Z" fill="#39A8DA"/>
    <path d="M38.0344 30.2168C37.7465 30.2168 37.5134 30.4499 37.5134 30.7378V34.9059C37.5134 35.1939 37.7465 35.4269 38.0344 35.4269C38.3224 35.4269 38.5555 35.1939 38.5555 34.9059V30.7378C38.5555 30.5996 38.5006 30.4671 38.4029 30.3694C38.3052 30.2717 38.1726 30.2168 38.0344 30.2168Z" fill="#39A8DA"/>
    <path d="M35.9505 30.2168C35.6625 30.2168 35.4294 30.4499 35.4294 30.7378V34.9059C35.4294 35.1939 35.6625 35.4269 35.9505 35.4269C36.2384 35.4269 36.4715 35.1939 36.4715 34.9059V30.7378C36.4715 30.5996 36.4166 30.4671 36.3189 30.3694C36.2212 30.2717 36.0886 30.2168 35.9505 30.2168Z" fill="#39A8DA"/>
    <path d="M33.8662 27.0918C33.5783 27.0918 33.3452 27.3249 33.3452 27.6128V34.907C33.3452 35.195 33.5783 35.428 33.8662 35.428C34.1542 35.428 34.3872 35.195 34.3872 34.907V27.6128C34.3872 27.4746 34.3324 27.3421 34.2347 27.2444C34.137 27.1467 34.0044 27.0918 33.8662 27.0918Z" fill="#39A8DA"/>
    <path d="M31.7822 28.1328C31.4943 28.1328 31.2612 28.3659 31.2612 28.6538V34.906C31.2612 35.1939 31.4943 35.427 31.7822 35.427C32.0702 35.427 32.3033 35.1939 32.3033 34.906V28.6538C32.3033 28.5157 32.2484 28.3831 32.1507 28.2854C32.053 28.1877 31.9204 28.1328 31.7822 28.1328Z" fill="#39A8DA"/>
    <path d="M29.698 29.1763C29.4101 29.1763 29.177 29.4093 29.177 29.6973V34.9074C29.177 35.1954 29.4101 35.4284 29.698 35.4284C29.986 35.4284 30.219 35.1954 30.219 34.9074V29.6973C30.219 29.5591 30.1641 29.4265 30.0665 29.3288C29.9688 29.2311 29.8362 29.1763 29.698 29.1763Z" fill="#39A8DA"/>
    <path d="M27.614 31.2603C27.3261 31.2603 27.093 31.4933 27.093 31.7813V34.9074C27.093 35.1953 27.3261 35.4284 27.614 35.4284C27.902 35.4284 28.135 35.1953 28.135 34.9074V31.7813C28.135 31.6431 28.0802 31.5105 27.9825 31.4128C27.8848 31.3151 27.7522 31.2603 27.614 31.2603Z" fill="#39A8DA"/>
</svg>
